<?xml version="1.0" encoding="UTF-8" standalone="no"?>
<!-- Created with Inkscape (http://www.inkscape.org/) -->

<svg
   width="250mm"
   height="100mm"
   viewBox="0 0 250 100"
   version="1.1"
   id="svg5"
   inkscape:version="1.1.2 (0a00cf5339, 2022-02-04)"
   sodipodi:docname="endecoder.svg"
   xmlns:inkscape="http://www.inkscape.org/namespaces/inkscape"
   xmlns:sodipodi="http://sodipodi.sourceforge.net/DTD/sodipodi-0.dtd"
   xmlns="http://www.w3.org/2000/svg"
   xmlns:svg="http://www.w3.org/2000/svg">
  <sodipodi:namedview
     id="namedview7"
     pagecolor="#ffffff"
     bordercolor="#666666"
     borderopacity="1.0"
     inkscape:pageshadow="2"
     inkscape:pageopacity="0.0"
     inkscape:pagecheckerboard="0"
     inkscape:document-units="mm"
     showgrid="false"
     inkscape:zoom="1.096075"
     inkscape:cx="455.26082"
     inkscape:cy="217.5946"
     inkscape:window-width="2560"
     inkscape:window-height="1376"
     inkscape:window-x="0"
     inkscape:window-y="27"
     inkscape:window-maximized="1"
     inkscape:current-layer="layer1"
     fit-margin-top="0"
     fit-margin-left="0"
     fit-margin-right="0"
     fit-margin-bottom="0"
     inkscape:snap-global="false"
     width="250mm" />
  <defs
     id="defs2" />
  <g
     inkscape:label="Layer 1"
     inkscape:groupmode="layer"
     id="layer1"
     transform="translate(-14.236732,-55.786156)">
    <path
       id="decodersymbol"
       style="fill-opacity:1;stroke-width:0.984672;stroke-dashoffset:1.85158"
       fill="#e6e6e6"
       d="m 218.05763,95.85534 -28.33733,9.2416 v 11.28399 l 28.33733,7.81175 z"
       sodipodi:nodetypes="ccccc" />
    <text
       xml:space="preserve"
       style="font-style:normal;font-weight:normal;font-size:3.48493px;line-height:1.25;font-family:sans-serif;letter-spacing:0px;word-spacing:0px;fill:#000000;fill-opacity:1;stroke:none;stroke-width:0.0871236"
       x="196.46454"
       y="110.99155"
       id="text2942-7"><tspan
         sodipodi:role="line"
         style="font-style:normal;font-variant:normal;font-weight:normal;font-stretch:normal;font-family:monospace;-inkscape-font-specification:monospace;stroke-width:0.0871236"
         x="196.46454"
         y="110.99155"
         id="encoder">decoder</tspan></text>
    <path
       style="fill:none;stroke:#000000;stroke-width:0.130264px;stroke-linecap:butt;stroke-linejoin:miter;stroke-opacity:1"
       d="m 184.22275,109.8261 h 3.71654"
       id="path3723" />
    <rect
       style="stroke-width:0.984672;stroke-dashoffset:1.85158"
       id="rect3936"
       class="vbox"
       fill="#e8e8e8"
       width="12.60578"
       height="7.790801"
       x="93.027"
       y="106.01179"
       ry="1.1740811" />
    <text
       xml:space="preserve"
       style="font-style:normal;font-variant:normal;font-weight:normal;font-stretch:normal;font-size:3.07093px;line-height:1.25;font-family:monospace;-inkscape-font-specification:'monospace, Normal';font-variant-ligatures:normal;font-variant-caps:normal;font-variant-numeric:normal;font-variant-east-asian:normal;letter-spacing:0px;word-spacing:0px;fill:#000000;fill-opacity:1;stroke:none;stroke-width:0.0767738"
       x="93.926735"
       y="111.23627"
       id="text5769"><tspan
         sodipodi:role="line"
         id="vector1"
         class="vector"
         style="font-style:normal;font-variant:normal;font-weight:normal;font-stretch:normal;font-size:3.07093px;font-family:monospace;-inkscape-font-specification:'monospace, Normal';font-variant-ligatures:normal;font-variant-caps:normal;font-variant-numeric:normal;font-variant-east-asian:normal;stroke-width:0.0767738"
         x="93.926735"
         y="111.23627">0.051</tspan></text>
    <rect
       style="stroke-width:0.984672;stroke-dashoffset:1.85158"
       id="rect7661"
       class="vbox"
       fill="#e8e8e8"
       width="12.60578"
       height="7.790801"
       x="108.23805"
       y="106.01179"
       ry="1.1740811" />
    <text
       xml:space="preserve"
       style="font-style:normal;font-variant:normal;font-weight:normal;font-stretch:normal;font-size:3.07093px;line-height:1.25;font-family:monospace;-inkscape-font-specification:'monospace, Normal';font-variant-ligatures:normal;font-variant-caps:normal;font-variant-numeric:normal;font-variant-east-asian:normal;letter-spacing:0px;word-spacing:0px;fill:#000000;fill-opacity:1;stroke:none;stroke-width:0.0767738"
       x="109.13778"
       y="111.23627"
       id="text7667"><tspan
         sodipodi:role="line"
         id="tspan7665"
         class="vector"
         style="font-style:normal;font-variant:normal;font-weight:normal;font-stretch:normal;font-size:3.07093px;font-family:monospace;-inkscape-font-specification:'monospace, Normal';font-variant-ligatures:normal;font-variant-caps:normal;font-variant-numeric:normal;font-variant-east-asian:normal;stroke-width:0.0767738"
         x="109.13778"
         y="111.23627">0.051</tspan></text>
    <rect
       style="stroke-width:0.984672;stroke-dashoffset:1.85158"
       id="rect7775"
       class="vbox"
       fill="#e8e8e8"
       width="12.60578"
       height="7.790801"
       x="123.4491"
       y="106.01179"
       ry="1.1740811" />
    <text
       xml:space="preserve"
       style="font-style:normal;font-variant:normal;font-weight:normal;font-stretch:normal;font-size:3.07093px;line-height:1.25;font-family:monospace;-inkscape-font-specification:'monospace, Normal';font-variant-ligatures:normal;font-variant-caps:normal;font-variant-numeric:normal;font-variant-east-asian:normal;letter-spacing:0px;word-spacing:0px;fill:#000000;fill-opacity:1;stroke:none;stroke-width:0.0767738"
       x="124.34883"
       y="111.23627"
       id="text7779"><tspan
         sodipodi:role="line"
         id="tspan7777"
         class="vector"
         style="font-style:normal;font-variant:normal;font-weight:normal;font-stretch:normal;font-size:3.07093px;font-family:monospace;-inkscape-font-specification:'monospace, Normal';font-variant-ligatures:normal;font-variant-caps:normal;font-variant-numeric:normal;font-variant-east-asian:normal;stroke-width:0.0767738"
         x="124.34883"
         y="111.23627">0.051</tspan></text>
    <rect
       style="stroke-width:0.984672;stroke-dashoffset:1.85158"
       id="rect7783"
       class="vbox"
       fill="#e8e8e8"
       width="12.60578"
       height="7.790801"
       x="138.66014"
       y="106.01179"
       ry="1.1740811" />
    <text
       xml:space="preserve"
       style="font-style:normal;font-variant:normal;font-weight:normal;font-stretch:normal;font-size:3.07093px;line-height:1.25;font-family:monospace;-inkscape-font-specification:'monospace, Normal';font-variant-ligatures:normal;font-variant-caps:normal;font-variant-numeric:normal;font-variant-east-asian:normal;letter-spacing:0px;word-spacing:0px;fill:#000000;fill-opacity:1;stroke:none;stroke-width:0.0767738"
       x="139.55988"
       y="111.23627"
       id="text7787"><tspan
         sodipodi:role="line"
         id="tspan7785"
         class="vector"
         style="font-style:normal;font-variant:normal;font-weight:normal;font-stretch:normal;font-size:3.07093px;font-family:monospace;-inkscape-font-specification:'monospace, Normal';font-variant-ligatures:normal;font-variant-caps:normal;font-variant-numeric:normal;font-variant-east-asian:normal;stroke-width:0.0767738"
         x="139.55988"
         y="111.23627">0.051</tspan></text>
    <rect
       style="stroke-width:0.984672;stroke-dashoffset:1.85158"
       id="rect7789"
       class="vbox"
       fill="#e8e8e8"
       width="12.60578"
       height="7.790801"
       x="153.8712"
       y="106.01179"
       ry="1.1740811" />
    <text
       xml:space="preserve"
       style="font-style:normal;font-variant:normal;font-weight:normal;font-stretch:normal;font-size:3.07093px;line-height:1.25;font-family:monospace;-inkscape-font-specification:'monospace, Normal';font-variant-ligatures:normal;font-variant-caps:normal;font-variant-numeric:normal;font-variant-east-asian:normal;letter-spacing:0px;word-spacing:0px;fill:#000000;fill-opacity:1;stroke:none;stroke-width:0.0767738"
       x="154.77095"
       y="111.23627"
       id="text7793"><tspan
         sodipodi:role="line"
         id="tspan7791"
         style="font-style:normal;font-variant:normal;font-weight:normal;font-stretch:normal;font-size:3.07093px;font-family:monospace;-inkscape-font-specification:'monospace, Normal';font-variant-ligatures:normal;font-variant-caps:normal;font-variant-numeric:normal;font-variant-east-asian:normal;stroke-width:0.0767738"
         x="154.77095"
         y="111.23627">....</tspan></text>
    <rect
       style="stroke-width:0.984672;stroke-dashoffset:1.85158"
       id="rect7795"
       class="vbox"
       fill="#e8e8e8"
       width="12.60578"
       height="7.790801"
       x="169.08232"
       y="106.01179"
       ry="1.1740811" />
    <text
       xml:space="preserve"
       style="font-style:normal;font-variant:normal;font-weight:normal;font-stretch:normal;font-size:3.07093px;line-height:1.25;font-family:monospace;-inkscape-font-specification:'monospace, Normal';font-variant-ligatures:normal;font-variant-caps:normal;font-variant-numeric:normal;font-variant-east-asian:normal;letter-spacing:0px;word-spacing:0px;fill:#000000;fill-opacity:1;stroke:none;stroke-width:0.0767738"
       x="169.98206"
       y="111.23627"
       id="text7801"><tspan
         sodipodi:role="line"
         id="tspan7799"
         class="vector"
         style="font-style:normal;font-variant:normal;font-weight:normal;font-stretch:normal;font-size:3.07093px;font-family:monospace;-inkscape-font-specification:'monospace, Normal';font-variant-ligatures:normal;font-variant-caps:normal;font-variant-numeric:normal;font-variant-east-asian:normal;stroke-width:0.0767738"
         x="169.98206"
         y="111.23627">0.051</tspan></text>
    <rect
       style="fill:#e6e6e6;stroke-width:0.957667;stroke-dashoffset:1.85158"
       id="rect2091"
       width="28.317722"
       height="28.317722"
       x="224.52518"
       y="96.053413"
       ry="1.8908525" />
    <path
       style="stroke-width:0.037636"
       d="m 242.1714,121.58239 c -1.76996,-0.20388 -2.62668,-0.7826 -2.93329,-1.9815 -0.12621,-0.49342 -0.16354,-1.12958 -0.14229,-2.42466 0.0231,-1.41023 0.0699,-1.71973 0.34627,-2.2913 0.13482,-0.27881 0.21435,-0.38775 0.43517,-0.59606 0.28706,-0.2708 0.75882,-0.53383 1.12644,-0.62804 0.10404,-0.0267 0.18917,-0.059 0.18917,-0.0719 0,-0.0128 -0.0864,-0.0455 -0.19207,-0.0726 -0.2899,-0.0743 -0.67363,-0.28064 -0.86769,-0.46658 -0.2284,-0.21884 -0.35228,-0.43748 -0.45336,-0.80011 -0.0756,-0.27115 -0.0829,-0.38216 -0.0822,-1.23874 0.002,-2.14155 0.33144,-4.17703 0.68438,-4.22743 0.24379,-0.0348 0.86136,0.4944 1.32313,1.13384 l 0.23925,0.33129 0.21058,-0.0277 c 0.27316,-0.0359 1.87925,-0.0359 2.15241,0 l 0.21058,0.0277 0.2271,-0.31248 c 0.51189,-0.70434 1.05321,-1.17485 1.32495,-1.15163 0.10213,0.009 0.14641,0.0381 0.20241,0.13437 0.25378,0.43615 0.49054,2.38671 0.49442,4.07322 0.002,0.86208 -0.004,0.94249 -0.0875,1.23574 -0.10287,0.35986 -0.30889,0.69561 -0.54391,0.88638 -0.17977,0.14593 -0.53474,0.33125 -0.76837,0.40117 -0.088,0.0264 -0.15996,0.0581 -0.15996,0.0706 0,0.0125 0.11165,0.0548 0.2481,0.0938 1.12108,0.32107 1.68059,1.00582 1.8632,2.28026 0.0726,0.50655 0.0613,2.63086 -0.0165,3.1207 -0.0342,0.21565 -0.0525,0.40195 -0.0404,0.41399 0.0121,0.0121 0.32958,0.0215 0.70562,0.021 0.76677,-7.1e-4 0.96766,-0.0381 1.447,-0.26722 0.62347,-0.29797 0.98568,-0.89785 0.98568,-1.63246 0,-0.7625 -0.38142,-1.39872 -1.00687,-1.67949 -0.38389,-0.17234 -0.49869,-0.23501 -0.60453,-0.33005 -0.29503,-0.26493 -0.24811,-0.68698 0.13982,-1.25778 0.3026,-0.44524 0.51111,-0.47837 1.16446,-0.18504 0.49519,0.22232 0.7901,0.42668 1.17524,0.81435 0.71775,0.7225 1.02711,1.50254 1.02383,2.58155 -0.004,1.34167 -0.49066,2.35963 -1.45768,3.0497 -0.31543,0.22508 -0.93779,0.51707 -1.35523,0.63584 -0.99584,0.28332 -2.20674,0.27682 -3.1196,-0.0168 -0.33343,-0.10723 -0.33635,-0.10747 -0.47095,-0.0391 -0.2084,0.10585 -0.69948,0.25059 -1.09514,0.32279 -0.26928,0.0491 -0.60839,0.0677 -1.37371,0.0754 -0.5589,0.006 -1.07546,0.004 -1.14791,-0.005 z m 3.01037,-9.60245 c 0.17113,-0.0858 0.22509,-0.20219 0.22578,-0.48676 7.1e-4,-0.44509 -0.11232,-0.55724 -0.56158,-0.55547 -0.15945,4.9e-4 -0.32332,0.0225 -0.37254,0.0495 -0.17598,0.097 -0.24829,0.49295 -0.14524,0.79513 0.0584,0.17129 0.23857,0.26333 0.51537,0.26333 0.12196,0 0.26091,-0.027 0.33821,-0.0658 z m -3.24619,-0.0951 c 0.096,-0.0959 0.1041,-0.12708 0.1041,-0.39842 0,-0.47376 -0.0924,-0.56961 -0.54936,-0.56961 -0.43692,0 -0.56091,0.12063 -0.56091,0.54572 0,0.44167 0.12714,0.55332 0.61098,0.53651 0.2609,-0.009 0.30188,-0.0209 0.39519,-0.1142 z"
       id="cat"
       class="img1" />
    <path
       style="stroke-width:0.0355587"
       d="m 246.81192,122.03904 c 1.57409,-0.19928 2.76026,-1.43014 3.28547,-3.40924 0.16029,-0.604 0.21898,-1.01421 0.24195,-1.69114 0.0162,-0.47893 0.008,-0.68277 -0.0393,-0.96523 l -0.0599,-0.35807 0.0887,-0.35045 c 0.19952,-0.78802 0.35794,-1.88945 0.40555,-2.8196 l 0.0245,-0.47786 0.11149,-0.0288 c 0.20415,-0.0528 0.44481,-0.24814 0.56114,-0.45559 l 0.10966,-0.19558 0.0115,-0.89728 c 0.0143,-1.1059 -0.006,-1.20982 -0.29715,-1.49287 -0.1048,-0.10203 -0.23128,-0.19573 -0.28105,-0.20823 -0.0695,-0.0174 -0.0991,-0.0569 -0.12768,-0.17008 -0.0809,-0.3208 -0.26202,-0.79876 -0.42526,-1.12251 -0.63492,-1.25913 -1.60672,-1.97406 -2.89858,-2.13237 -0.43493,-0.0533 -4.54978,-0.0537 -4.83833,-4.4e-4 -0.59656,0.11004 -1.12854,0.61011 -1.4979,1.40804 -0.4316,0.93244 -0.72821,2.29299 -0.88222,4.04686 -0.056,0.63718 -0.1332,2.60615 -0.10409,2.65324 0.008,0.0136 -0.0847,0.072 -0.20699,0.12973 -0.38994,0.18422 -0.6304,0.50095 -0.71153,0.93718 -0.0782,0.42054 0.14376,0.92708 0.5185,1.18322 0.1791,0.12242 0.51411,0.23487 0.69972,0.23487 0.18561,0 0.52062,-0.11245 0.69972,-0.23487 0.37915,-0.25916 0.59683,-0.7621 0.51658,-1.19358 -0.022,-0.11773 -0.0741,-0.28485 -0.11596,-0.37137 -0.0974,-0.20109 -0.33819,-0.44216 -0.52667,-0.52714 -0.0808,-0.0365 -0.14696,-0.0795 -0.14696,-0.0957 0,-0.0162 0.17086,-0.3658 0.37971,-0.77689 0.27764,-0.54654 0.39656,-0.74744 0.44238,-0.74744 0.0344,0 0.0726,0.016 0.0846,0.0354 0.0121,0.0195 0.0369,0.27953 0.0552,0.57783 0.0608,0.99075 0.17278,1.77446 0.37423,2.61825 0.11046,0.46266 0.11784,0.52525 0.0775,0.65783 -0.0736,0.24174 -0.0581,1.69743 0.0227,2.13756 0.39578,2.15622 1.45636,3.59641 2.94495,3.99907 0.49308,0.13338 0.99414,0.16779 1.50373,0.10328 z m -0.89529,-0.60194 c -0.3983,-0.0543 -0.62632,-0.12601 -0.9836,-0.3092 -0.95123,-0.48771 -1.65623,-1.64619 -1.9527,-3.20872 -0.064,-0.33715 -0.0778,-0.54 -0.0787,-1.15566 -0.001,-0.85151 0.0197,-0.96175 0.22743,-1.19773 0.25308,-0.28751 0.70386,-0.46869 1.44095,-0.57915 0.51105,-0.0766 3.01404,-0.0757 3.53241,0.001 0.79869,0.11858 1.31893,0.37005 1.50004,0.72505 0.13392,0.26253 0.1804,1.01353 0.10526,1.70086 -0.14101,1.28989 -0.59136,2.40873 -1.26004,3.13052 -0.6433,0.69439 -1.57527,1.0231 -2.53109,0.89271 z m 1.49979,-4.4854 c 0.18232,-0.10456 0.21691,-0.33008 0.0727,-0.47427 l -0.0873,-0.0873 h -1.03443 -1.03444 l -0.0873,0.0873 c -0.14673,0.14673 -0.10856,0.37582 0.0793,0.47586 0.10759,0.0573 1.99121,0.0559 2.09141,-0.002 z m -7.25921,-1.81467 c -0.32841,-0.22504 -0.36967,-0.67388 -0.0879,-0.9557 0.24424,-0.24423 0.5791,-0.25551 0.83798,-0.0282 0.37358,0.32802 0.24946,0.91342 -0.22623,1.06701 -0.14062,0.0454 -0.39532,0.005 -0.5239,-0.0831 z m 9.21494,-0.40945 c -0.30891,-0.15492 -0.7339,-0.28027 -1.17708,-0.34717 -0.44511,-0.0672 -2.38972,-0.0952 -3.22509,-0.0463 -0.83292,0.0486 -1.52136,0.22965 -1.9348,0.50872 l -0.18531,0.12509 -0.0349,-0.13336 c -0.12621,-0.48377 -0.28013,-1.63257 -0.31681,-2.36468 l -0.0245,-0.48893 h 3.83676 3.83678 l -0.0246,0.47115 c -0.036,0.6891 -0.16433,1.6555 -0.31157,2.34716 l -0.036,0.16919 -0.0948,-0.0669 c -0.0521,-0.0368 -0.19078,-0.11504 -0.30813,-0.17389 z m -0.14224,-1.36731 c 0.18233,-0.10457 0.21691,-0.33008 0.0727,-0.47427 l -0.0873,-0.0873 h -1.03444 -1.03443 l -0.0873,0.0873 c -0.14672,0.14672 -0.10855,0.37581 0.0793,0.47586 0.10759,0.0573 1.99121,0.0559 2.09141,-0.002 z m -3.67759,-0.061 c 0.13262,-0.13262 0.139,-0.29093 0.0166,-0.41327 l -0.0873,-0.0873 h -1.02802 c -0.97027,0 -1.03304,0.004 -1.11742,0.0703 -0.0492,0.0386 -0.0968,0.10934 -0.10597,0.15702 -0.0242,0.12671 0.0619,0.30128 0.16871,0.34188 0.0532,0.0203 0.50997,0.0353 1.0711,0.0353 h 0.97829 z m -4.69856,-1.75136 c 0.10712,-1.74261 0.30376,-2.98914 0.62619,-3.96965 0.27651,-0.84085 0.65187,-1.41959 1.06055,-1.63517 l 0.18217,-0.0961 1.1201,-0.0109 c 0.61605,-0.006 1.23832,-0.006 1.38282,0 l 0.26271,0.0109 -0.22716,0.17735 c -0.7599,0.59329 -1.63157,1.61277 -2.51851,2.94559 -0.59104,0.88816 -1.32106,2.13308 -1.74324,2.97275 -0.0814,0.16195 -0.15651,0.28598 -0.16687,0.27564 -0.0103,-0.0103 -7.1e-4,-0.31203 0.0213,-0.67041 z m 1.17551,-0.21745 c 0,-0.0505 0.6742,-1.19231 1.02795,-1.74092 l 0.22355,-0.34669 h 3.74177 3.74178 l 0.0862,0.0917 c 0.0851,0.0905 0.0863,0.1019 0.0976,0.88007 0.007,0.50528 -0.002,0.83612 -0.0279,0.92129 -0.0752,0.2543 0.24599,0.23747 -4.56158,0.23905 -3.51389,0.001 -4.32927,-0.007 -4.32927,-0.0445 z m 1.70682,-2.71234 c 0,-0.0487 0.66526,-0.88623 0.99322,-1.25044 0.61029,-0.67777 1.20656,-1.15475 1.7033,-1.36256 0.35937,-0.15035 0.62778,-0.1877 1.01259,-0.14092 1.08821,0.13232 1.93022,0.75899 2.47457,1.84171 0.10711,0.21303 0.32356,0.81059 0.32356,0.89323 0,0.0282 -0.90659,0.0392 -3.25362,0.0392 -1.78949,0 -3.25362,-0.009 -3.25362,-0.0202 z"
       id="santa"
       class="img1" />
    <path
       style="fill:#000000;stroke-width:0.0262419"
       d="m 245.38602,120.4418 c -0.34507,-0.0674 -0.63908,-0.21086 -0.91504,-0.44661 -0.13352,-0.11407 -0.17332,-0.1298 -0.86068,-0.34001 -0.79264,-0.24242 -1.00928,-0.32479 -1.32031,-0.50203 -0.29992,-0.17091 -0.55173,-0.37208 -0.83418,-0.66634 -0.51269,-0.53416 -0.83544,-1.16977 -0.98052,-1.93107 -0.0616,-0.32335 -0.0566,-0.90855 0.0121,-1.41677 0.0292,-0.21634 0.0511,-0.39404 0.0486,-0.39488 -0.002,-7.2e-4 -0.0961,-0.0459 -0.20798,-0.10012 -0.63264,-0.30664 -0.9713,-1.10744 -0.76381,-1.80612 0.0975,-0.32827 0.90449,-2.31059 1.00621,-2.47167 0.0594,-0.094 0.17613,-0.23405 0.25941,-0.31115 0.25051,-0.23193 0.42918,-0.30685 1.27602,-0.53499 0.73963,-0.19927 0.76955,-0.20506 1.06478,-0.20604 l 0.30375,-7.1e-4 0.22459,0.11128 c 0.24286,0.12035 0.47027,0.33257 0.57378,0.53546 0.0467,0.0916 0.0622,0.10287 0.12413,0.0901 0.86052,-0.1772 1.81441,-0.17745 2.63444,-7.1e-4 0.0622,0.0134 0.0772,0.003 0.12414,-0.0894 0.1035,-0.20289 0.33092,-0.41511 0.57378,-0.53546 l 0.22459,-0.11128 0.30375,7.1e-4 c 0.29523,7.2e-4 0.32515,0.006 1.06478,0.20564 0.83586,0.22487 1.02073,0.30134 1.26232,0.52215 0.25922,0.2369 0.34385,0.40155 0.80709,1.57009 0.23703,0.59789 0.4492,1.14853 0.4715,1.22363 0.2077,0.69937 -0.12906,1.50108 -0.75878,1.80643 -0.11418,0.0554 -0.20972,0.10138 -0.21229,0.10224 -0.002,7.1e-4 0.0193,0.17855 0.0486,0.39489 0.13509,0.99776 0.0327,1.72818 -0.34671,2.47474 -0.40955,0.80576 -1.12279,1.45287 -1.96713,1.78472 -0.0794,0.0312 -0.45408,0.15081 -0.83265,0.26581 -0.68795,0.20895 -0.68841,0.20914 -0.86599,0.35605 -0.20163,0.16683 -0.52256,0.334 -0.75497,0.39326 -0.22781,0.0581 -0.57127,0.0704 -0.78725,0.0282 z m 0.63399,-1.30066 c 0.26191,-0.15021 0.32384,-0.31347 0.32384,-0.85367 v -0.3724 l -0.17532,-0.0745 c -0.0964,-0.041 -0.23342,-0.11361 -0.30442,-0.16139 -0.071,-0.0478 -0.13838,-0.0869 -0.14972,-0.0869 -0.0113,0 -0.0898,0.0454 -0.17449,0.10081 -0.0846,0.0555 -0.22178,0.12768 -0.30477,0.1605 l -0.15089,0.0597 v 0.37329 c 0,0.41231 0.0304,0.56256 0.14367,0.71113 0.17239,0.226 0.53398,0.29148 0.7921,0.14344 z m -2.16914,-0.98421 v -0.27509 l -0.12627,-0.064 c -0.2877,-0.14579 -0.55104,-0.42689 -0.72756,-0.77664 -0.21807,-0.43209 0.0631,-0.9034 0.53894,-0.9034 0.2651,0 0.42891,0.1071 0.58612,0.38321 0.0986,0.17316 0.18204,0.23167 0.32931,0.23089 0.38442,-0.002 0.56866,-0.15045 0.61972,-0.49918 l 0.0175,-0.11932 -0.1662,-0.1163 c -0.36349,-0.25436 -0.67809,-0.63244 -0.67781,-0.81455 4.4e-4,-0.30979 0.61649,-0.5234 1.50812,-0.52295 0.33331,1.5e-4 0.71822,0.048 0.95852,0.11908 0.30672,0.0907 0.47232,0.24225 0.47201,0.43183 -3.2e-4,0.19659 -0.26384,0.51237 -0.66861,0.80121 l -0.17421,0.12431 0.0175,0.108 c 0.055,0.34082 0.23901,0.48586 0.61881,0.48787 0.1509,7.2e-4 0.22771,-0.0557 0.33808,-0.24858 0.15385,-0.26891 0.39135,-0.40602 0.64342,-0.37146 0.44619,0.0612 0.66493,0.49752 0.46244,0.92247 -0.15635,0.32805 -0.42751,0.61675 -0.71719,0.76354 l -0.12621,0.064 v 0.27791 c 0,0.21134 0.008,0.27498 0.0328,0.26569 0.018,-0.006 0.15631,-0.0504 0.30727,-0.0971 0.73435,-0.22718 1.25399,-0.65014 1.5751,-1.28205 0.26404,-0.51958 0.31488,-0.96164 0.20858,-1.81347 -0.0402,-0.32253 -0.0649,-0.44205 -0.0954,-0.46149 -0.3482,-0.22253 -0.43625,-0.28889 -0.53479,-0.40308 -0.0638,-0.0739 -0.53579,-0.78673 -1.04898,-1.58416 l -0.93306,-1.44987 -0.19533,-0.0458 c -0.10744,-0.0252 -0.33114,-0.0649 -0.49711,-0.0884 -0.41986,-0.0592 -1.20932,-0.0397 -1.61388,0.0399 -0.41989,0.0826 -0.45184,0.0959 -0.52928,0.22081 -0.43681,0.70457 -1.80772,2.80666 -1.89735,2.90932 -0.0996,0.11413 -0.19155,0.18326 -0.53342,0.40128 -0.0307,0.0196 -0.0557,0.14269 -0.0982,0.48548 -0.11602,0.93335 -0.0259,1.45526 0.34964,2.02643 0.23981,0.36465 0.56803,0.65972 0.95046,0.85444 0.14721,0.075 0.72212,0.2832 0.80693,0.29228 0.0108,10e-4 0.0197,-0.12169 0.0197,-0.27298 z m -0.15761,-3.60553 c -0.22497,-0.0734 -0.37168,-0.22193 -0.4353,-0.44076 -0.0551,-0.18972 -0.019,-0.3791 0.1029,-0.53855 0.18146,-0.23743 0.53008,-0.30534 0.79306,-0.15449 0.52327,0.30014 0.34966,1.0868 -0.25207,1.14212 -0.0786,0.007 -0.17242,0.004 -0.20859,-0.008 z m 3.73544,-4.2e-4 c -0.41304,-0.10559 -0.59909,-0.60459 -0.35658,-0.95632 0.22715,-0.32943 0.75143,-0.34122 0.99511,-0.0224 0.0469,0.0614 0.097,0.17031 0.1147,0.24939 0.0969,0.43309 -0.32267,0.83937 -0.75323,0.7293 z m -6.03965,-0.97174 c 0.0354,-0.0279 0.46217,-0.6696 0.94825,-1.42603 0.73489,-1.14363 0.88377,-1.39095 0.88377,-1.4681 0,-0.17084 -0.008,-0.17048 -0.77787,0.0325 -0.5928,0.1564 -0.71607,0.1972 -0.7757,0.25673 -0.0501,0.05 -0.19445,0.3813 -0.49204,1.12934 -0.3385,0.85089 -0.42113,1.08328 -0.42113,1.18454 0,0.16083 0.0504,0.22216 0.23618,0.28728 0.18897,0.0662 0.31752,0.0674 0.39854,0.004 z m 9.01599,0.008 c 0.20341,-0.0591 0.26871,-0.13086 0.26871,-0.29513 0,-0.10655 -0.0761,-0.32148 -0.42112,-1.18864 -0.29619,-0.74453 -0.44216,-1.07972 -0.49203,-1.12988 -0.06,-0.0604 -0.17876,-0.0996 -0.776,-0.25648 -0.76918,-0.20202 -0.77758,-0.20237 -0.77758,-0.0322 0,0.0771 0.14888,0.32446 0.88378,1.46809 0.48608,0.75643 0.91278,1.39815 0.94824,1.42604 0.0786,0.0618 0.17418,0.064 0.366,0.008 z"
       id="dog"
       class="img1" />
    <path
       style="stroke-width:0.0520321"
       d="m 227.7058,116.82043 c -0.0623,-0.0623 -0.10407,-0.17344 -0.10407,-0.27695 0,-0.14767 0.0806,-0.25965 0.55267,-0.76747 3.02459,-3.25399 4.76162,-7.10135 5.11944,-11.33919 0.0565,-0.66899 0.0663,-1.19674 0.0223,-1.19674 -0.0533,0 -0.85791,0.63024 -1.55025,1.21433 -0.8593,0.72493 -2.26683,2.13109 -3.06804,3.06503 -0.35635,0.41538 -0.66451,0.72796 -0.73517,0.74569 -0.17187,0.0431 -0.43647,-0.10776 -0.4778,-0.27249 -0.0556,-0.22144 0.0257,-1.29331 0.14089,-1.85872 0.41214,-2.02244 1.66015,-3.44771 3.65239,-4.17119 0.26405,-0.0959 0.46574,-0.17551 0.44822,-0.17694 -0.0175,-0.001 -0.32192,-0.0622 -0.67642,-0.13509 -0.3545,-0.0729 -1.73331,-0.3543 -3.06403,-0.6254 -1.33072,-0.2711 -2.4618,-0.50616 -2.51351,-0.52235 -0.0517,-0.0162 -0.13184,-0.10878 -0.17809,-0.20574 -0.11846,-0.24843 -0.0372,-0.393859 0.36244,-0.648953 0.89675,-0.572336 2.09512,-1.081919 3.00697,-1.278641 0.65409,-0.141119 1.74953,-0.131238 2.35966,0.02127 1.19701,0.299227 2.32175,1.088894 3.09076,2.170004 l 0.31456,0.4422 0.18258,-0.32539 c 0.31045,-0.55325 0.71204,-1.085273 1.20003,-1.589809 1.21765,-1.258918 2.52068,-1.8315 4.16797,-1.8315 0.75199,0 1.80916,0.179742 2.19493,0.373181 0.16233,0.08141 0.25443,0.326364 0.18226,0.484774 -0.0888,0.194901 -1.38299,1.196598 -2.73396,2.116074 -0.62935,0.42833 -0.66017,0.4572 -0.52033,0.48721 1.83751,0.39438 3.19332,1.54094 4.01392,3.39443 0.092,0.20773 0.16721,0.45944 0.16721,0.55935 0,0.22487 -0.15226,0.38978 -0.35988,0.38978 -0.0853,0 -0.54689,-0.19437 -1.05365,-0.44364 -0.98444,-0.48423 -2.0858,-0.93098 -3.13926,-1.27339 -0.61772,-0.20077 -2.68219,-0.74629 -2.70778,-0.7155 -0.006,0.007 0.009,0.14182 0.0332,0.29922 0.0856,0.55737 0.11583,2.39511 0.0513,3.12164 -0.28824,3.24337 -1.47481,6.27317 -3.83463,9.79132 -0.30086,0.44854 -0.60293,0.87585 -0.67125,0.94958 l -0.12424,0.13406 h -1.82361 c -1.75423,0 -1.82756,-0.004 -1.92767,-0.10406 z m 3.99286,-1.62599 c 0.77192,-1.1676 1.21012,-1.91415 1.71474,-2.92128 1.42828,-2.85061 2.05844,-5.63162 1.88757,-8.33026 -0.0488,-0.77049 -0.12413,-1.41814 -0.17036,-1.46437 -0.0107,-0.0106 -0.15152,-0.0438 -0.31309,-0.0736 -0.27305,-0.0505 -0.307,-0.0453 -0.4813,0.0731 l -0.18753,0.12743 -0.02,0.87588 c -0.10403,4.54109 -1.77176,8.69717 -4.99248,12.44156 l -0.19021,0.22113 h 1.06247 1.06247 z m -0.3246,-11.50943 c 0.37202,-0.30831 0.88131,-0.71404 1.13174,-0.90161 0.25043,-0.18757 0.44465,-0.35172 0.43161,-0.36477 -0.0451,-0.0451 -0.73271,0.1073 -1.26756,0.2809 -1.30965,0.4251 -2.22785,1.16647 -2.78546,2.24905 -0.23129,0.44904 -0.41125,0.96538 -0.4937,1.41649 l -0.0433,0.2372 1.17516,-1.17834 c 0.64632,-0.64809 1.47952,-1.43061 1.85155,-1.73892 z m 10.43199,-0.23741 c -0.97664,-1.43817 -2.557,-2.16682 -4.30072,-1.98289 -0.7103,0.0749 -1.54162,0.26598 -1.39637,0.32093 0.0572,0.0217 0.50591,0.13517 0.99703,0.25227 1.41761,0.338 3.394,1.01743 4.54438,1.56224 0.18602,0.0881 0.34494,0.16019 0.35316,0.16022 0.008,2e-5 -0.0806,-0.14073 -0.19748,-0.31277 z m -8.44357,-2.5091 c -0.92225,-1.199614 -1.98889,-1.789093 -3.34126,-1.846563 -0.69621,-0.02959 -1.21366,0.04451 -1.92518,0.275684 -0.56498,0.183561 -1.32254,0.545641 -1.22276,0.584412 0.12062,0.04687 6.73538,1.397327 6.75901,1.379907 0.0115,-0.008 -0.10995,-0.18551 -0.26981,-0.39344 z m 3.29302,-0.16916 c 0.86697,-0.16115 1.92241,-0.75636 3.74611,-2.112574 l 0.65039,-0.483676 -0.18211,-0.04471 c -0.10016,-0.02457 -0.4982,-0.04761 -0.88454,-0.05119 -0.83665,-0.0077 -1.37621,0.103863 -2.06674,0.427456 -0.98151,0.45995 -1.91913,1.349587 -2.53107,2.401524 l -0.1406,0.24169 0.45723,-0.14335 c 0.25148,-0.0788 0.67958,-0.18467 0.95133,-0.23519 z"
       id="tree"
       class="img2" />
    <path
       style="stroke-width:0.0423501"
       d="m 230.43249,119.72472 c -0.17338,-0.12105 -1.43227,-0.96325 -2.79755,-1.87157 -1.36529,-0.90832 -2.53995,-1.70071 -2.61038,-1.76089 l -0.12806,-0.10941 v -0.45109 c 0,-0.30246 0.0163,-0.4684 0.0492,-0.50368 0.0271,-0.0289 0.54573,-0.38436 1.15252,-0.78984 l 1.10326,-0.73725 0.0197,-6.36985 c 0.0108,-3.50341 0.0341,-6.39545 0.0515,-6.42674 0.0176,-0.0313 0.0484,-0.0569 0.0687,-0.0569 0.0202,0 0.7764,-0.49396 1.68032,-1.097682 0.90392,-0.603728 1.68262,-1.118273 1.73043,-1.143442 0.0751,-0.03954 0.32232,0.110929 1.81428,1.104035 0.95004,0.632389 1.74951,1.181569 1.7766,1.220419 0.0389,0.0557 0.0493,1.40603 0.0493,6.40756 v 6.33694 l 1.13281,0.76133 c 0.62305,0.41874 1.14583,0.78426 1.16175,0.81227 0.0159,0.028 0.0292,0.24747 0.0295,0.48768 3.7e-4,0.36845 -0.0109,0.44874 -0.0727,0.51334 -0.10475,0.1095 -5.79162,3.89799 -5.84871,3.89629 -0.0261,-4.9e-4 -0.1893,-0.10046 -0.36266,-0.22151 z m 0.17731,-0.524 c 0,-0.0956 -0.13511,-0.19984 -1.05402,-0.81316 -2.86072,-1.90943 -4.22804,-2.80975 -4.26711,-2.80975 -0.0237,0 -0.0373,0.0458 -0.0305,0.10189 0.0102,0.0824 0.51756,0.4391 2.65253,1.86477 1.45196,0.96957 2.65323,1.76356 2.66948,1.76439 0.0163,4.9e-4 0.0295,-0.0478 0.0295,-0.10814 z m 3.08024,-1.6457 c 1.41566,-0.94343 2.5961,-1.73579 2.62319,-1.7608 0.0593,-0.0547 0.0658,-0.21641 0.009,-0.21641 -0.0224,0 -0.73597,0.46297 -1.58593,1.02881 -0.84994,0.56585 -2.03739,1.35644 -2.63877,1.75685 -0.97402,0.64856 -1.0934,0.74052 -1.0934,0.84235 0,0.0802 0.0167,0.10688 0.0562,0.0894 0.0308,-0.0138 1.21441,-0.79679 2.63009,-1.74022 z m -0.67672,-0.3407 c 2.88502,-1.88863 3.07616,-2.01757 3.06672,-2.06895 -0.005,-0.025 -0.38176,-0.29662 -0.83815,-0.60353 l -0.8298,-0.558 -0.0197,0.77058 c -0.0108,0.42382 -0.0287,0.78047 -0.0394,0.79254 -0.06,0.0669 -3.51698,2.35233 -3.55814,2.35233 -0.0271,0 -0.0843,-0.0281 -0.12704,-0.0623 -0.0428,-0.0343 -0.82242,-0.55905 -1.7326,-1.16611 -0.91019,-0.60706 -1.66375,-1.11322 -1.67459,-1.12479 -0.0108,-0.0115 -0.0286,-0.36465 -0.0394,-0.78462 l -0.0197,-0.76358 -0.85815,0.57015 c -0.47199,0.31359 -0.84375,0.58679 -0.82615,0.60712 0.0176,0.0203 1.20872,0.81478 2.64695,1.76546 2.28726,1.5119 2.62532,1.72219 2.69775,1.6782 0.0455,-0.0277 1.01366,-0.65965 2.1514,-1.40445 z m -2.40364,-0.39612 -1.1e-4,-0.4438 -0.46288,-0.30289 c -0.25455,-0.16659 -0.82633,-0.54659 -1.27059,-0.84445 -0.44425,-0.29786 -0.90969,-0.60858 -1.03429,-0.6905 l -0.22657,-0.14894 v 0.4539 0.45388 l 1.46772,0.98186 c 0.80726,0.54002 1.48102,0.98251 1.49728,0.98331 0.0162,7.1e-4 0.0294,-0.19827 0.0294,-0.44237 z m 1.91733,-0.5387 1.47136,-0.98251 v -0.45294 c 0,-0.45243 -8e-5,-0.45288 -0.0866,-0.3994 -0.0477,0.0294 -0.56626,0.37464 -1.15251,0.7671 -0.58624,0.39246 -1.22056,0.81461 -1.40957,0.93811 l -0.34366,0.22454 -7.2e-4,0.4438 c -4.9e-4,0.2441 0.0106,0.44382 0.0248,0.44382 0.0143,0 0.68803,-0.44213 1.49729,-0.98252 z m -1.91721,-0.83733 v -0.45427 l -0.20686,-0.13705 c -0.11378,-0.0754 -0.22017,-0.13725 -0.23642,-0.13748 -0.0162,-2.3e-4 -0.0295,0.19187 -0.0295,0.42689 v 0.42733 l 0.22656,0.16054 c 0.1246,0.0883 0.23099,0.16229 0.23641,0.16443 0.005,0.003 0.01,-0.20054 0.01,-0.45039 z m 0.86684,-0.30211 c 0,-0.23492 -0.0133,-0.42693 -0.0295,-0.42669 -0.0163,2.3e-4 -0.12265,0.0621 -0.23641,0.13748 l -0.20686,0.13705 v 0.45233 0.45232 l 0.2364,-0.16269 0.23642,-0.16269 z m -1.69429,-0.26223 c 0,-0.46592 0.0112,-0.44094 -0.28567,-0.63693 l -0.18716,-0.12355 v 0.45336 0.45335 l 0.20687,0.13931 c 0.11377,0.0766 0.22015,0.13977 0.23641,0.14032 0.0162,4.4e-4 0.0295,-0.19108 0.0295,-0.42586 z m 2.31007,0.28696 0.21166,-0.13989 v -0.45709 -0.45709 l -0.0886,0.0649 c -0.0488,0.0357 -0.15515,0.11142 -0.23642,0.16827 l -0.14775,0.10336 v 0.42872 c 0,0.2358 0.0111,0.42872 0.0247,0.42872 0.0135,0 0.12,-0.063 0.23641,-0.13989 z m -3.17691,-0.85818 v -0.45185 l -0.21166,-0.1399 c -0.11641,-0.077 -0.2228,-0.1399 -0.23642,-0.1399 -0.0135,0 -0.0247,0.19294 -0.0247,0.42877 v 0.42877 l 0.22657,0.16176 c 0.1246,0.089 0.23098,0.16231 0.2364,0.16298 0.005,7.1e-4 0.01,-0.20211 0.01,-0.45063 z m 4.20616,0.16532 c 0.051,-0.0447 0.0742,-0.89697 0.0245,-0.89697 -0.0135,0 -0.12001,0.063 -0.23642,0.1399 l -0.21165,0.1399 v 0.45377 0.45377 l 0.18716,-0.12356 c 0.10293,-0.0679 0.20931,-0.14301 0.23641,-0.16681 z m -2.55927,-0.69439 c -0.0281,-0.0304 -0.46779,-0.33159 -0.97706,-0.66926 -0.50928,-0.33766 -1.15645,-0.76906 -1.43817,-0.95867 l -0.51223,-0.34475 -0.0116,0.3495 c -0.006,0.19222 0.002,0.35529 0.0197,0.36236 0.0173,0.007 0.68743,0.45208 1.48926,0.98889 l 1.45787,0.976 0.0117,-0.32436 c 0.008,-0.2222 -0.004,-0.34182 -0.0394,-0.37971 z m 1.58406,-0.0456 c 0.55262,-0.36922 1.19534,-0.79627 1.42826,-0.94902 l 0.42351,-0.27772 8e-5,-0.35648 8e-5,-0.35648 -0.12806,0.0894 c -0.0704,0.0492 -0.59792,0.40223 -1.17221,0.78458 -0.57428,0.38236 -1.186,0.79092 -1.35937,0.9079 l -0.31522,0.21271 -0.0115,0.35189 c -0.0107,0.32631 -0.006,0.34871 0.0591,0.30821 0.0388,-0.024 0.52278,-0.34577 1.07538,-0.71498 z m -4.06682,-0.002 -0.0113,-0.43658 -0.22657,-0.15397 -0.22656,-0.15398 v 0.45307 0.45307 l 0.20686,0.13706 c 0.11377,0.0754 0.2208,0.13724 0.23783,0.13747 0.0171,2.3e-4 0.0259,-0.19603 0.0197,-0.43614 z m 5.71186,0.29867 0.20687,-0.13706 v -0.45307 -0.45307 l -0.22657,0.15398 -0.22656,0.15397 -0.0113,0.43658 c -0.006,0.24011 0.002,0.43638 0.0197,0.43614 0.0171,-2.2e-4 0.12407,-0.0621 0.23784,-0.13747 z m -3.1817,-1.17882 v -0.45186 l -0.21167,-0.1399 c -0.11641,-0.0769 -0.2228,-0.13989 -0.23641,-0.13989 -0.0135,0 -0.0247,0.19294 -0.0247,0.42877 v 0.42877 l 0.22656,0.16176 c 0.1246,0.089 0.231,0.1623 0.23641,0.16297 0.005,7.2e-4 0.01,-0.20211 0.01,-0.45062 z m 0.81758,0.16533 c 0.051,-0.0447 0.0742,-0.89697 0.0245,-0.89697 -0.0135,0 -0.12001,0.063 -0.23641,0.13989 l -0.21166,0.1399 v 0.45377 0.45377 l 0.18715,-0.12355 c 0.10295,-0.0679 0.20933,-0.14302 0.23642,-0.16681 z m -1.65346,-0.74179 -0.0113,-0.43657 -0.22657,-0.15399 -0.22656,-0.15398 v 0.45308 0.45307 l 0.20687,0.13705 c 0.11377,0.0754 0.2208,0.13724 0.23783,0.13748 0.017,2.3e-4 0.0259,-0.19603 0.0197,-0.43614 z m 2.3233,0.29866 0.20686,-0.13705 v -0.4531 -0.45308 l -0.22656,0.15398 -0.22657,0.15399 -0.0113,0.43657 c -0.006,0.24011 0.002,0.43637 0.0197,0.43614 0.017,-2.3e-4 0.12406,-0.0621 0.23783,-0.13748 z m -3.18171,-0.85917 v -0.45086 l -0.21612,-0.14091 c -0.11886,-0.0775 -0.22589,-0.1409 -0.23784,-0.1409 -0.0119,0 -0.0166,0.1985 -0.0104,0.4411 l 0.0113,0.4411 0.21671,0.15046 c 0.11919,0.0827 0.22114,0.15055 0.22656,0.15065 0.005,9e-5 0.01,-0.20269 0.01,-0.45066 z m 4.10766,0.23826 0.14775,-0.10719 V 111.412 c 0,-0.23752 -0.0105,-0.43187 -0.0235,-0.43187 -0.0128,0 -0.11925,0.0662 -0.23641,0.1472 l -0.21301,0.14719 v 0.44615 0.44617 l 0.0886,-0.0543 c 0.0488,-0.0299 0.15516,-0.10254 0.23643,-0.16149 z m -2.48043,-0.7785 c -0.039,-0.0329 -0.56733,-0.38971 -1.17411,-0.79275 -0.60679,-0.40304 -1.24511,-0.83085 -1.41847,-0.95068 l -0.31522,-0.21788 -0.0116,0.34379 c -0.006,0.18909 -0.006,0.34873 0,0.35477 0.006,0.006 0.67651,0.45421 1.48918,0.99594 l 1.47756,0.98496 0.0117,-0.3291 c 0.01,-0.27425 -4e-5,-0.3391 -0.0591,-0.38905 z m 0.82253,0.4954 c 0.31309,-0.21241 1.681,-1.12657 2.32724,-1.55527 l 0.30489,-0.20225 3.8e-4,-0.3494 3.7e-4,-0.3494 -0.89639,0.5965 c -0.49301,0.32808 -1.16236,0.77481 -1.48741,0.99275 l -0.59104,0.39623 -0.0115,0.34671 c -0.006,0.19068 -0.004,0.3467 0.006,0.3467 0.0101,0 0.16599,-0.10015 0.34644,-0.22257 z m -3.27721,-0.52516 v -0.42908 l -0.21165,-0.13991 c -0.11642,-0.0769 -0.2228,-0.13989 -0.23642,-0.13989 -0.0135,0 -0.0247,0.19286 -0.0247,0.42858 v 0.42859 l 0.18715,0.13724 c 0.10294,0.0755 0.20933,0.13866 0.23641,0.1404 0.0361,0.002 0.0493,-0.11131 0.0493,-0.42593 z m 5.71329,0.29747 0.17731,-0.12448 0.0113,-0.44093 c 0.006,-0.24252 -3.7e-4,-0.44094 -0.0149,-0.44094 -0.0144,0 -0.12143,0.0629 -0.23784,0.13989 l -0.21167,0.13991 v 0.42908 c 0,0.48587 0.004,0.48904 0.27582,0.29747 z m -3.19155,-1.18409 v -0.45085 l -0.21612,-0.14089 c -0.11886,-0.0775 -0.2259,-0.14091 -0.23785,-0.14091 -0.0119,0 -0.0166,0.1985 -0.0104,0.4411 l 0.0113,0.4411 0.21671,0.15046 c 0.1192,0.0828 0.22114,0.15055 0.22656,0.15066 0.005,8e-5 0.01,-0.2027 0.01,-0.45067 z m 0.71907,0.23827 0.14777,-0.10719 v -0.43193 c 0,-0.23752 -0.0105,-0.43186 -0.0234,-0.43186 -0.0128,0 -0.11925,0.0662 -0.23642,0.1472 l -0.21301,0.14718 v 0.44617 0.44616 l 0.0887,-0.0543 c 0.0488,-0.0299 0.15514,-0.10253 0.23641,-0.16149 z m -1.54652,-0.80826 v -0.42909 l -0.21166,-0.1399 c -0.1164,-0.0769 -0.22279,-0.1399 -0.23641,-0.1399 -0.0135,0 -0.0247,0.19287 -0.0247,0.42859 v 0.42858 l 0.18717,0.13724 c 0.10293,0.0755 0.20932,0.13867 0.23641,0.1404 0.0361,0.003 0.0493,-0.11131 0.0493,-0.42592 z m 2.32472,0.29746 0.17731,-0.12448 0.0113,-0.44093 c 0.006,-0.24252 -3.7e-4,-0.44094 -0.0149,-0.44094 -0.0144,0 -0.12142,0.063 -0.23783,0.1399 l -0.21166,0.1399 v 0.42909 c 0,0.48587 0.004,0.48902 0.27582,0.29746 z m -3.19156,-0.86256 v -0.44795 l -0.20646,-0.13242 c -0.11355,-0.0728 -0.2206,-0.13949 -0.23789,-0.14815 -0.0173,-0.009 -0.0263,0.18579 -0.0201,0.4321 l 0.0114,0.44783 0.21497,0.14827 c 0.11823,0.0816 0.22018,0.14828 0.22656,0.14828 0.006,0 0.0116,-0.20158 0.0116,-0.44796 z m 4.25541,-0.29465 c 0,-0.24666 -0.0134,-0.44165 -0.0299,-0.43331 -0.0164,0.008 -0.1228,0.0766 -0.23637,0.15174 l -0.20649,0.13655 -3e-5,0.4469 -4e-5,0.44689 0.23641,-0.15014 0.23641,-0.15015 v -0.4485 z m -2.56932,0.12165 -0.0115,-0.34783 -0.39402,-0.25934 c -0.21671,-0.14264 -0.88605,-0.58877 -1.48743,-0.99139 l -1.0934,-0.73205 v 0.35054 0.35056 l 1.46771,0.98431 c 0.80726,0.54137 1.48178,0.98628 1.49894,0.98868 0.0172,0.003 0.026,-0.15216 0.0197,-0.34348 z m 0.82881,0.0894 c 0.62458,-0.42357 0.97063,-0.65552 1.78977,-1.19963 l 0.77819,-0.51693 v -0.33749 c 0,-0.28127 -0.01,-0.33305 -0.0592,-0.31121 -0.049,0.0218 -1.26026,0.82516 -2.63006,1.74456 l -0.30537,0.20496 v 0.33706 c 0,0.1854 0.0102,0.33707 0.0227,0.33707 0.0126,0 0.19424,-0.11631 0.40385,-0.25848 z m -3.34295,-0.45844 c -3e-4,-0.21906 -0.0135,-0.41976 -0.0295,-0.446 -0.0298,-0.049 -0.37975,-0.29369 -0.42014,-0.29369 -0.0124,0 -0.0225,0.19456 -0.0225,0.43235 v 0.43235 l 0.18716,0.13577 c 0.10293,0.0747 0.20933,0.13617 0.23641,0.13665 0.0357,4.9e-4 0.049,-0.10832 0.0486,-0.39743 z m 5.71331,0.27311 0.19646,-0.12517 4.9e-4,-0.44382 c 3.1e-4,-0.24409 -0.013,-0.44381 -0.0294,-0.44381 -0.0165,0 -0.11845,0.0668 -0.22656,0.14844 l -0.19656,0.14845 -0.0113,0.42055 c -0.007,0.26843 0.004,0.42054 0.0294,0.42054 0.0225,0 0.12927,-0.0563 0.23733,-0.12518 z m -3.19097,-1.18764 v -0.44805 l -0.20647,-0.13242 c -0.11356,-0.0728 -0.2206,-0.13949 -0.23788,-0.14815 -0.0173,-0.009 -0.0263,0.18579 -0.0201,0.4321 l 0.0113,0.44783 0.21495,0.14828 c 0.11824,0.0815 0.2202,0.14827 0.22657,0.14827 0.006,0 0.0116,-0.20158 0.0116,-0.44796 z m 0.75848,0.21114 c 0.10528,-0.0855 0.10836,-0.10032 0.10836,-0.52115 0,-0.23821 -0.0134,-0.42629 -0.0299,-0.41795 -0.0164,0.008 -0.1228,0.0766 -0.23637,0.15173 l -0.20649,0.13656 -3e-5,0.44498 -5e-5,0.44499 0.12806,-0.0756 c 0.0704,-0.0416 0.17681,-0.11518 0.23641,-0.16359 z m -1.58593,-0.78302 v -0.42818 l -0.21612,-0.14091 c -0.11886,-0.0775 -0.22588,-0.1409 -0.23784,-0.1409 -0.0119,0 -0.0166,0.19842 -0.0104,0.44094 l 0.0113,0.44093 0.17731,0.12448 c 0.27282,0.19153 0.27581,0.18831 0.27581,-0.29645 z m 2.32413,0.30291 0.19646,-0.12518 4.9e-4,-0.44381 c 2.9e-4,-0.2441 -0.01,-0.44381 -0.0228,-0.44381 -0.0128,0 -0.11925,0.0662 -0.23642,0.14719 l -0.21301,0.14719 v 0.4218 c 0,0.25071 0.016,0.4218 0.0394,0.4218 0.0216,0 0.12779,-0.0563 0.23584,-0.12518 z m -3.19097,-0.8658 v -0.44467 l -0.23642,-0.15014 -0.23641,-0.15015 5e-4,0.4469 4.9e-4,0.44689 0.20617,0.14393 c 0.1134,0.0792 0.21947,0.14573 0.23572,0.14794 0.0163,0.002 0.0295,-0.1961 0.0295,-0.44068 z m 4.04896,0.28952 0.20645,-0.13241 v -0.44975 -0.44974 l -0.23594,0.14972 -0.23594,0.14973 -3.9e-4,0.4476 c -3.1e-4,0.24618 0.013,0.44078 0.0294,0.43243 0.0165,-0.008 0.12286,-0.0748 0.23641,-0.14758 z m -2.36287,-0.46177 -0.0115,-0.34382 -0.92595,-0.61612 c -0.50927,-0.33886 -1.16902,-0.77816 -1.46613,-0.97623 -0.2971,-0.19807 -0.54977,-0.36012 -0.56148,-0.36012 -0.0117,0 -0.0213,0.15112 -0.0213,0.33582 v 0.33582 l 0.99489,0.66197 c 0.54719,0.36409 1.20767,0.80615 1.46773,0.98236 0.26006,0.17621 0.48687,0.32123 0.50403,0.32226 0.0172,0.001 0.026,-0.15283 0.0197,-0.34194 z m 1.21992,-0.1705 c 0.3846,-0.25935 1.03172,-0.69209 1.43806,-0.96163 l 0.73879,-0.49008 v -0.33681 c 0,-0.18537 -0.009,-0.33704 -0.0197,-0.33704 -0.0108,0 -0.6846,0.44324 -1.49728,0.98498 l -1.4776,0.98499 v 0.33994 c 0,0.28376 0.01,0.33561 0.0592,0.31369 0.0325,-0.0144 0.3739,-0.23845 0.7585,-0.49781 z m -3.73346,-0.20693 c 0,-0.32738 -0.0129,-0.41523 -0.0689,-0.47013 -0.0716,-0.0701 -0.35587,-0.26523 -0.38642,-0.26523 -0.01,0 -0.0174,0.19972 -0.0173,0.44381 l 1.4e-4,0.44381 0.187,0.12388 c 0.28161,0.18654 0.28551,0.18278 0.28551,-0.27614 z m 5.7173,0.27744 0.19292,-0.12518 4e-5,-0.44381 c 2e-5,-0.24409 -0.01,-0.44381 -0.0215,-0.44381 -0.0118,0 -0.11826,0.0714 -0.23641,0.15875 l -0.21481,0.15875 v 0.41024 c 0,0.2686 0.015,0.41024 0.0434,0.41024 0.024,0 0.13027,-0.0563 0.23637,-0.12518 z m -3.19556,-1.18437 v -0.44467 l -0.23642,-0.15015 -0.23641,-0.15014 4.9e-4,0.44689 4.9e-4,0.4469 0.20617,0.14392 c 0.1134,0.0792 0.21948,0.14574 0.23573,0.14794 0.0162,0.002 0.0295,-0.1961 0.0295,-0.44068 z m 0.66038,0.28952 0.20646,-0.13242 v -0.44984 -0.44974 l -0.23595,0.14972 -0.23594,0.14973 -3.9e-4,0.4476 c -3e-4,0.24619 0.013,0.44078 0.0294,0.43243 0.0165,-0.008 0.12285,-0.0748 0.23641,-0.14758 z m -1.52949,-1.28183 c -0.0394,-0.0549 -0.37781,-0.29273 -0.41643,-0.29273 -0.008,0 -0.0145,0.19971 -0.0142,0.44381 l 4.9e-4,0.44381 0.22602,0.14396 0.22603,0.14397 0.0114,-0.41029 c 0.007,-0.25801 -0.005,-0.43339 -0.0334,-0.47253 z m 2.56339,0.15195 c 0,-0.24458 -0.01,-0.44468 -0.0215,-0.44468 -0.0118,0 -0.11825,0.0714 -0.2364,0.15874 l -0.21482,0.15876 v 0.43608 0.43608 l 0.23641,-0.15015 0.23642,-0.15014 z m -3.38904,-0.29675 -3.9e-4,-0.44381 -0.23594,-0.14972 -0.23594,-0.14972 v 0.446 0.44601 l 0.20686,0.14599 c 0.11377,0.0803 0.22016,0.14669 0.23641,0.14753 0.0163,10e-4 0.0293,-0.19818 0.0292,-0.44228 z m 4.03977,0.30291 0.21611,-0.1409 v -0.4528 -0.45276 l -0.18715,0.12355 c -0.29688,0.19598 -0.28567,0.171 -0.28567,0.63692 0,0.23478 0.009,0.42686 0.0203,0.42686 0.0112,0 0.11755,-0.0634 0.23641,-0.1409 z m 0.47223,-1.71188 c 0.28172,-0.18653 0.52619,-0.35474 0.54327,-0.3738 0.0171,-0.019 0.0259,-0.2302 0.0197,-0.46921 l -0.0113,-0.43456 -1.47758,0.98528 -1.47758,0.98528 -0.0112,0.46305 -0.0112,0.46304 0.95684,-0.63996 c 0.52627,-0.35198 1.18736,-0.79258 1.46908,-0.97912 z m -2.82567,1.1379 -0.0113,-0.44178 -1.41847,-0.94803 c -0.78017,-0.52142 -1.4495,-0.96858 -1.48743,-0.99368 -0.0637,-0.0422 -0.0689,-0.011 -0.0689,0.40998 v 0.45563 l 0.26051,0.17186 c 0.14328,0.0945 0.80376,0.53504 1.46771,0.97893 0.66397,0.44389 1.22116,0.80748 1.23821,0.80796 0.017,4.9e-4 0.0259,-0.1979 0.0197,-0.44087 z m -2.51331,-0.26321 v -0.43186 l -0.14775,-0.10719 c -0.0813,-0.059 -0.18765,-0.13163 -0.23641,-0.1615 l -0.0887,-0.0543 v 0.4475 0.44751 l 0.20686,0.14178 c 0.11376,0.078 0.22016,0.14362 0.23641,0.14585 0.0163,0.002 0.0295,-0.19027 0.0295,-0.4278 z m 5.91031,-0.30764 v -0.44731 l -0.0887,0.0543 c -0.0488,0.0298 -0.15515,0.10253 -0.23641,0.16149 l -0.14776,0.10719 v 0.40152 c 0,0.22083 0.0101,0.41325 0.0226,0.4276 0.0124,0.0144 0.11881,-0.0378 0.23641,-0.1158 l 0.21384,-0.1419 z m -1.66489,-1.26287 c 0.80561,-0.53801 1.45216,-0.99221 1.43675,-1.00933 -0.094,-0.10454 -2.91575,-1.949445 -2.96634,-1.939421 -0.0772,0.01531 -2.99379,1.959551 -2.97394,1.982481 0.0729,0.0842 2.93255,1.95945 2.97826,1.953 0.0333,-0.005 0.71965,-0.44873 1.52527,-0.98673 z m -2.17682,-0.47103 c -0.51213,-0.34765 -0.55162,-0.38411 -0.55162,-0.50929 0,-0.12531 0.039,-0.16116 0.55162,-0.5069 0.30341,-0.20463 0.59215,-0.373745 0.64164,-0.375802 0.0495,-0.0019 0.29774,0.132932 0.55163,0.299972 0.65514,0.43103 0.68497,0.45773 0.67069,0.60021 -0.0102,0.10196 -0.096,0.17683 -0.56369,0.49205 -0.30339,0.20449 -0.59595,0.37234 -0.65013,0.373 -0.0542,5e-4 -0.34673,-0.16729 -0.65014,-0.37324 z m 1.01114,-0.30757 c 0.17433,-0.11762 0.26335,-0.20301 0.2399,-0.23011 -0.0935,-0.10804 -0.58121,-0.40386 -0.63009,-0.38219 -0.0301,0.0133 -0.17935,0.10837 -0.33181,0.21123 -0.19683,0.1328 -0.26497,0.20114 -0.23504,0.23571 0.0892,0.10304 0.5789,0.39469 0.62809,0.37407 0.0285,-0.0119 0.1765,-0.10585 0.32895,-0.20871 z"
       id="skyscraper"
       class="img2" />
    <path
       style="fill:#000000;stroke-width:0.0356172"
       d="m 232.42066,119.80771 c -0.16493,0.0338 -0.32061,-0.0287 -0.42211,-0.16947 -0.0677,-0.0939 -0.0781,-0.28089 -0.0784,-1.40493 -1.3e-4,-0.71316 0.018,-1.34115 0.0406,-1.39553 0.13299,-0.3211 0.65797,-0.30033 0.75946,0.03 0.0189,0.0616 0.0336,0.68754 0.0325,1.39105 -0.002,1.23198 -0.005,1.28361 -0.10134,1.40051 -0.0745,0.0909 -0.1325,0.12816 -0.23075,0.14832 z m 1.44452,-1.49377 c -0.18172,0.0118 -0.33936,-0.0655 -0.41232,-0.20213 -0.0486,-0.0911 -0.065,-1.96769 -0.0185,-2.11791 0.0955,-0.30832 0.46454,-0.38167 0.70591,-0.1403 0.0893,0.0893 0.0946,0.15192 0.0962,1.14566 0.002,1.00941 -0.002,1.05618 -0.0989,1.17734 -0.0894,0.11208 -0.11981,0.12743 -0.27236,0.13734 z m 5.73478,-5.66436 c -0.0582,0.011 -0.97788,0.0217 -2.04369,0.0236 l -1.93786,0.004 -0.0834,0.21669 c -0.27753,0.72092 -0.77519,1.6804 -0.9246,1.78261 -0.0771,0.0528 -0.53195,0.0658 -2.28748,0.0656 l -2.19121,-2.7e-4 -0.12935,-0.13478 c -0.17107,-0.17826 -0.60129,-1.02975 -0.86541,-1.71283 l -0.0835,-0.21584 -1.99003,-0.003 c -1.31604,-0.001 -2.01936,-0.0203 -2.07663,-0.0547 -0.20036,-0.12089 -0.26977,-0.35005 -0.17185,-0.56742 0.0296,-0.0657 0.59427,-0.648 1.72086,-1.77461 l 1.67683,-1.67682 0.008,-0.60121 c 0.0476,-3.35333 1.25128,-6.40159 3.48118,-8.81516 0.43377,-0.469487 0.53145,-0.529999 0.74543,-0.46189 0.31037,0.09879 1.47307,1.51138 2.10634,2.55906 1.21948,2.01749 1.85728,4.2689 1.89559,6.69134 l 0.01,0.62876 1.67883,1.67883 c 1.78801,1.78802 1.77987,1.77873 1.76654,2.0094 -0.008,0.14134 -0.17152,0.33341 -0.30508,0.35873 z m -2.70892,-2.39513 -0.53649,-0.52288 -0.0889,0.53316 c -0.0489,0.29322 -0.1402,0.72939 -0.20293,0.96925 -0.0627,0.23987 -0.12,0.46932 -0.12731,0.50991 -0.0117,0.0652 0.13403,0.074 1.24742,0.0752 l 1.26071,10e-4 -0.50802,-0.52163 c -0.27941,-0.28689 -0.74944,-0.75692 -1.0445,-1.0445 z m -2.53364,3.21576 c 0.67455,-1.36426 1.08614,-2.8552 1.2145,-4.39933 0.13167,-1.5839 -0.0725,-3.28927 -0.577,-4.81981 l -0.17805,-0.54016 h -2.48113 -2.48113 l -0.17806,0.54016 c -1.00141,3.03805 -0.76983,6.38259 0.63861,9.22265 l 0.21647,0.43653 1.8023,2.6e-4 c 0.99125,1.4e-4 1.80379,-7.2e-4 1.80563,-0.003 0.002,-0.002 0.0999,-0.19858 0.21786,-0.43721 z m -0.95252,-3.58548 c -0.67364,0.38238 -1.48016,0.3787 -2.15063,-0.01 -0.21738,-0.12596 -0.59394,-0.50478 -0.72669,-0.73105 -0.47569,-0.81076 -0.34263,-1.90822 0.31052,-2.56137 0.68956,-0.68956 1.83717,-0.7993 2.67149,-0.25546 0.40733,0.26552 0.71953,0.70361 0.8593,1.20588 0.13457,0.48354 0.0416,1.15663 -0.22186,1.60561 -0.13135,0.22388 -0.53245,0.62718 -0.74213,0.7462 z m 0.0425,-1.22909 c 0.2793,-0.53667 0.16386,-1.1329 -0.298,-1.53905 -0.33459,-0.29423 -0.82409,-0.3823 -1.26324,-0.22728 -0.26128,0.0922 -0.57232,0.38066 -0.68916,0.63905 -0.17821,0.39413 -0.16022,0.79557 0.053,1.18074 0.27025,0.48828 0.91796,0.7384 1.45964,0.56364 0.35171,-0.11347 0.57128,-0.29713 0.7378,-0.6171 z m -4.82763,2.62416 c -0.072,-0.28124 -0.16718,-0.73095 -0.21155,-0.99934 -0.0444,-0.2684 -0.0848,-0.50561 -0.0899,-0.52712 -0.006,-0.0247 -0.39566,0.34728 -1.06202,1.01364 l -1.05277,1.05278 1.25888,3.8e-4 c 0.69238,2.1e-4 1.26548,-0.006 1.27356,-0.0143 0.008,-0.008 -0.0442,-0.24479 -0.11619,-0.52604 z m 5.64906,-8.78909 c -0.46784,-0.90309 -1.30494,-2.1184 -1.80092,-2.614605 l -0.13219,-0.132251 -0.13219,0.132247 c -0.55757,0.557809 -1.57626,2.080259 -1.95254,2.918059 -0.0361,0.0804 0.0769,0.085 2.07349,0.0852 1.16142,1.3e-4 2.11112,-0.0157 2.11043,-0.0352 -7.2e-4,-0.0194 -0.0754,-0.17855 -0.16608,-0.35354 z m -3.25417,15.80317 c -0.15699,0.0652 -0.32611,0.0265 -0.45701,-0.10442 l -0.12438,-0.12438 0.002,-1.05849 c 0.002,-1.00091 0.006,-1.06364 0.0962,-1.15299 0.24147,-0.24148 0.61108,-0.16787 0.70566,0.14053 0.0485,0.15804 0.0324,1.98009 -0.0185,2.09124 -0.0518,0.11326 -0.10474,0.16743 -0.20377,0.20851 z"
       id="rocket"
       class="img2" />
    <path
       style="fill:none;stroke:#000000;stroke-width:0.130264px;stroke-linecap:butt;stroke-linejoin:miter;stroke-opacity:1"
       d="m 219.30612,109.8261 h 3.71653"
       id="path1032" />
    <path
       id="encodersymbol"
       style="fill-opacity:1;stroke-width:0.991544;stroke-dashoffset:1.85158"
       fill="#e6e6e6"
       d="m 56.832016,95.494296 28.535262,9.306154 v 11.3628 l -28.535262,7.86631 z"
       sodipodi:nodetypes="ccccc" />
    <rect
       style="stroke-width:0.937685;stroke-dashoffset:1.85158"
       id="promptrect"
       fill="#e6e6e6"
       width="24.845261"
       height="12.422745"
       x="25.092522"
       y="103.0001"
       ry="1.957762" />
    <text
       xml:space="preserve"
       style="font-style:normal;font-weight:normal;font-size:3.07802px;line-height:1.25;font-family:sans-serif;letter-spacing:0px;word-spacing:0px;fill:#000000;fill-opacity:1;stroke:none;stroke-width:0.0769499"
       x="27.510899"
       y="108.28148"
       id="text2942"><tspan
         sodipodi:role="line"
         id="inputtext1"
         style="font-style:normal;font-variant:normal;font-weight:normal;font-stretch:normal;font-family:monospace;-inkscape-font-specification:monospace;stroke-width:0.0769499"
         x="27.510899"
         y="108.28148">interesting</tspan><tspan
         sodipodi:role="line"
         style="font-style:normal;font-variant:normal;font-weight:normal;font-stretch:normal;font-family:monospace;-inkscape-font-specification:monospace;stroke-width:0.0769499"
         x="27.510899"
         y="112.12901"
         id="inputtext2"> prompt</tspan></text>
    <text
       xml:space="preserve"
       style="font-style:normal;font-weight:normal;font-size:3.50927px;line-height:1.25;font-family:sans-serif;letter-spacing:0px;word-spacing:0px;fill:#000000;fill-opacity:1;stroke:none;stroke-width:0.0877317"
       x="63.623169"
       y="110.73624"
       id="text2942-7-2"><tspan
         sodipodi:role="line"
         style="font-style:normal;font-variant:normal;font-weight:normal;font-stretch:normal;font-family:monospace;-inkscape-font-specification:monospace;stroke-width:0.0877317"
         x="63.623169"
         y="110.73624"
         id="encoder-5">encoder</tspan></text>
    <path
       style="fill:none;stroke:#000000;stroke-width:0.131173px;stroke-linecap:butt;stroke-linejoin:miter;stroke-opacity:1"
       d="m 52.016775,109.56263 h 3.742484"
       id="path3723-4" />
    <path
       style="fill:none;stroke:#000000;stroke-width:0.131173px;stroke-linecap:butt;stroke-linejoin:miter;stroke-opacity:1"
       d="M 86.983489,109.56263 H 90.72598"
       id="path3912" />
  </g>
  <script
     id="script1278">//<![CDATA[
      const image2 = ["tree", "rocket", "skyscraper"];
      const image1 = ["santa", "cat", "dog"];
      const intxt1 = ["crazy", "nice", "fancy", "Critical", "Practice",  "Graphic",  "Storytelling"];
      const intxt2 = ["santa claus", "cat", "dog"];
      var input1 = document.getElementById("inputtext1");
      var input2 = document.getElementById("inputtext2");
      var img1s = document.getElementsByClassName('img1');
      var img2s = document.getElementsByClassName('img2');
      var txt1 = Math.floor(Math.random() * intxt1.length); 
      var txt2 = Math.floor(Math.random() * intxt2.length); 
      var frame = 0;
      var i1 = Math.floor(Math.random() * image1.length); 
      var i2 = Math.floor(Math.random() * image2.length); 
      var vboxs = document.getElementsByClassName('vbox');
      var decodersymbol = document.getElementById("decodersymbol");
      var elements = document.getElementsByClassName('vector');
      var encodersymbol = document.getElementById("encodersymbol");
      var promptsymbol = document.getElementById("promptrect");
      
    function animate() {
      frame++;
      if (frame%100 == 0){
         txt1 = Math.floor(Math.random() * intxt1.length); 
         txt2 = Math.floor(Math.random() * intxt2.length); 
         promptsymbol.setAttribute("fill","#e8ffe8")
         for(i=0;i<6;i++){
            vboxs[i].setAttribute("fill","#e8e8e8")
         }
         input1.innerHTML = intxt1[txt1];
         input2.innerHTML = intxt2[txt2];
         var i1 = Math.floor(Math.random() * image1.length); 
         var i2 = Math.floor(Math.random() * image1.length); 
         for(i=0;i<3;i++){
            img1s[i].setAttribute("visibility", "hidden");
            img2s[i].setAttribute("visibility", "hidden");
         }
         img1s[i1].setAttribute("visibility", "visible");
         img2s[i2].setAttribute("visibility", "visible");

      }
      if (frame%100 == 33){
         decodersymbol.setAttribute("fill","#e8ffe8")
         }
      if (frame%100 == 50){
          decodersymbol.setAttribute("fill","#e8e8e8")
         }
      if (frame%100 == 66){
         for(i=0;i<5;i++){
            elements[i].innerHTML= (0.5-Math.random()).toFixed(3);
            } 
         for(i=0;i<6;i++){
            vboxs[i].setAttribute("fill","#e8ffe8")
         }
      }

        requestAnimationFrame(animate);
    }
    requestAnimationFrame(animate);//]]></script>
</svg>
