<?xml version="1.0" encoding="UTF-8" standalone="no"?>
<!-- Created with Inkscape (http://www.inkscape.org/) -->

<svg
   width="181.27724mm"
   height="112.03549mm"
   viewBox="0 0 181.27724 112.03549"
   version="1.1"
   id="svg1672"
   inkscape:version="1.1.2 (0a00cf5339, 2022-02-04)"
   sodipodi:docname="mp3.svg"
   xmlns:inkscape="http://www.inkscape.org/namespaces/inkscape"
   xmlns:sodipodi="http://sodipodi.sourceforge.net/DTD/sodipodi-0.dtd"
   xmlns="http://www.w3.org/2000/svg"
   xmlns:svg="http://www.w3.org/2000/svg">
  <sodipodi:namedview
     id="namedview1674"
     pagecolor="#ffffff"
     bordercolor="#666666"
     borderopacity="1.0"
     inkscape:pageshadow="2"
     inkscape:pageopacity="0.0"
     inkscape:pagecheckerboard="0"
     inkscape:document-units="mm"
     showgrid="false"
     fit-margin-top="0"
     fit-margin-left="0"
     fit-margin-right="0"
     fit-margin-bottom="0"
     inkscape:zoom="14.316533"
     inkscape:cx="573.35811"
     inkscape:cy="199.1404"
     inkscape:window-width="2035"
     inkscape:window-height="1155"
     inkscape:window-x="103"
     inkscape:window-y="99"
     inkscape:window-maximized="0"
     inkscape:current-layer="layer1" />
  <defs
     id="defs1669" />
  <g
     inkscape:label="Layer 1"
     inkscape:groupmode="layer"
     id="layer1"
     transform="translate(-6.040441,76.978981)">
    <path
       style="fill:#f9f9f9;stroke-width:0.0765775"
       d="m 42.854486,-12.544116 c -0.127872,-0.06069 -0.268082,-0.182898 -0.311576,-0.271571 -0.0548,-0.11171 -0.07909,-2.252955 -0.07909,-6.971701 v -6.810465 l 0.214297,-0.233815 c 0.146257,-0.159576 0.287708,-0.233811 0.445511,-0.233811 0.157805,0 0.299254,0.07423 0.44551,0.233811 l 0.214298,0.233815 v 6.769185 c 0,7.45147 0.01945,7.134483 -0.448584,7.312499 -0.128207,0.04876 -0.236428,0.08725 -0.240493,0.08553 -0.0041,-0.0018 -0.112008,-0.05279 -0.239877,-0.113472 z m -14.751738,-1.031623 c -0.381255,-0.237642 -0.369246,-0.0054 -0.372034,-7.194591 -0.0028,-7.313304 -0.01585,-7.082257 0.408903,-7.258453 0.290659,-0.120576 0.440196,-0.09198 0.682556,0.13053 l 0.225561,0.207084 v 6.867468 6.867476 l -0.164954,0.204523 c -0.199426,0.24726 -0.541753,0.324486 -0.780032,0.175963 z m -5.044183,-0.804551 -0.205694,-0.193027 -0.01884,-5.946127 c -0.01837,-5.800627 -0.0153,-5.952427 0.126021,-6.203935 0.22635,-0.402848 0.710464,-0.449852 1.031018,-0.100098 0.141582,0.154475 0.14476,0.29054 0.14476,6.200735 v 6.042803 l -0.17995,0.196331 c -0.240262,0.262151 -0.619994,0.263555 -0.897314,0.0031 z m 17.127044,-0.01337 -0.177733,-0.206419 v -8.590555 -8.590541 l 0.199609,-0.217785 c 0.260224,-0.283926 0.636854,-0.295615 0.898064,-0.02786 l 0.185284,0.189919 v 8.62849 8.6285 l -0.179947,0.196335 c -0.253012,0.276056 -0.682942,0.27137 -0.925277,-0.01006 z m -14.696839,-1.349733 -0.179948,-0.196335 v -7.391831 c 0,-7.251061 0.0028,-7.395662 0.145464,-7.593589 0.183101,-0.253972 0.474876,-0.336984 0.749007,-0.213095 0.443475,0.200427 0.425145,-0.136816 0.425145,7.822147 v 7.276825 l -0.189797,0.246102 c -0.249745,0.323843 -0.67811,0.346281 -0.949871,0.04977 z m 12.455888,-0.199903 c -0.405427,-0.186324 -0.392734,-0.007 -0.392734,-5.546893 v -5.107646 l 0.214297,-0.233815 c 0.288118,-0.314354 0.602906,-0.314354 0.891022,0 l 0.214297,0.233815 v 5.12098 5.120981 l -0.164951,0.204518 c -0.182757,0.226598 -0.520756,0.318888 -0.761931,0.208051 z m -5.09034,-0.237518 -0.214297,-0.23381 v -6.759094 -6.759071 l 0.189798,-0.246102 c 0.25635,-0.332405 0.683789,-0.347903 0.95004,-0.03443 l 0.179778,0.21165 v 6.743618 c 0,4.771897 -0.0238,6.800611 -0.0814,6.938536 -0.174577,0.418051 -0.70237,0.489553 -1.023922,0.138717 z m 12.271154,-0.119212 -0.205694,-0.193045 v -6.013033 -6.01301 l 0.205694,-0.193045 c 0.277318,-0.260263 0.65704,-0.258872 0.897317,0.0031 l 0.179947,0.19634 v 6.006433 6.006443 l -0.179947,0.196335 c -0.240277,0.262159 -0.619999,0.26355 -0.897317,0.0031 z m -24.337893,-0.563466 c -0.127872,-0.06069 -0.26808,-0.182899 -0.311577,-0.271576 -0.054,-0.110095 -0.07909,-1.656088 -0.07909,-4.875044 0,-4.602206 0.0035,-4.718655 0.14752,-4.918429 0.290986,-0.403626 0.93948,-0.314118 1.101935,0.15209 0.04172,0.119727 0.07016,2.065245 0.07016,4.799468 0,5.065973 0.0086,4.967549 -0.448584,5.141438 -0.128207,0.04876 -0.236428,0.08725 -0.24049,0.08552 -0.0041,-0.0018 -0.112012,-0.05279 -0.23988,-0.113471 z m 26.813711,-0.650417 -0.22556,-0.207084 v -3.381631 c 0,-3.267332 0.005,-3.388543 0.147517,-3.586242 0.297007,-0.411979 0.907339,-0.321249 1.090857,0.162156 0.0623,0.164096 0.08032,1.138087 0.06531,3.530264 l -0.02073,3.303649 -0.205694,0.192987 c -0.267599,0.251061 -0.568299,0.246084 -0.851699,-0.01409 z m -17.186581,-1.188914 -0.193984,-0.196152 v -4.286869 -4.286851 l 0.179947,-0.196336 c 0.240277,-0.262163 0.619999,-0.263554 0.897317,-0.0031 l 0.205697,0.19304 v 4.293255 4.293263 l -0.205697,0.193044 c -0.273089,0.256293 -0.627976,0.25505 -0.88328,-0.0031 z m 4.897869,-1.61e-4 -0.17995,-0.196362 v -4.286677 -4.286672 l 0.17995,-0.196336 c 0.240249,-0.262132 0.619983,-0.263549 0.897314,-0.0031 l 0.205697,0.192991 0.022,4.026418 c 0.01208,2.214537 0.0017,4.147428 -0.02319,4.295325 -0.10248,0.609986 -0.72428,0.866556 -1.101817,0.454635 z m 14.154069,-0.794584 c -0.243303,-0.265464 -0.273801,-0.537711 -0.245888,-2.194983 0.0243,-1.442511 0.02544,-1.451244 0.216703,-1.659768 0.139149,-0.151707 0.268334,-0.209629 0.467533,-0.209629 0.199196,0 0.328381,0.05792 0.46753,0.209629 0.191264,0.208524 0.192406,0.217257 0.2167,1.659768 0.01344,0.797575 0.003,1.574743 -0.02319,1.72704 -0.06734,0.391616 -0.335514,0.658953 -0.661044,0.658953 -0.179775,0 -0.318783,-0.06058 -0.438348,-0.191037 z m -31.220975,0.02048 c -0.28825,-0.182819 -0.341384,-0.539137 -0.340952,-2.286513 5.36e-4,-1.765048 0.05532,-2.18372 0.312,-2.379877 0.186822,-0.142772 0.514211,-0.15899 0.724984,-0.0359 0.303732,0.177354 0.355533,0.520236 0.355533,2.353231 0,1.833 -0.0518,2.175881 -0.355533,2.353236 -0.187132,0.109268 -0.520318,0.107278 -0.696032,-0.004 z"
       id="path5596" />
    <path
       style="opacity:0.8;fill:#cccccc;stroke-width:0.0741012"
       d="m 44.174104,-12.693099 c -0.127872,-0.05683 -0.268082,-0.17126 -0.311576,-0.254294 -0.0548,-0.1046 -0.07908,-2.109592 -0.07908,-6.528082 v -6.377118 l 0.214297,-0.218939 c 0.146256,-0.149421 0.287708,-0.218934 0.445511,-0.218934 0.157805,0 0.299254,0.06951 0.44551,0.218934 l 0.214298,0.218939 v 6.338467 c 0,6.977321 0.01945,6.680504 -0.448584,6.847194 -0.128207,0.04566 -0.236428,0.0817 -0.240493,0.08009 -0.0041,-0.0018 -0.112009,-0.04943 -0.239878,-0.106255 z m -14.75174,-0.965978 c -0.381255,-0.22252 -0.369246,-0.0051 -0.372034,-6.736795 -0.0028,-6.847963 -0.01585,-6.631617 0.408903,-6.796599 0.290659,-0.112904 0.440196,-0.08612 0.682556,0.122221 l 0.225561,0.193908 v 6.430498 6.430493 l -0.164954,0.191502 c -0.199426,0.23153 -0.541753,0.303842 -0.780032,0.164772 z m -5.044183,-0.753358 -0.205694,-0.180744 -0.01884,-5.567769 c -0.01837,-5.431538 -0.0153,-5.573676 0.126021,-5.809185 0.22635,-0.377214 0.710464,-0.421226 1.031018,-0.09373 0.141582,0.14465 0.14476,0.272054 0.14476,5.80619 v 5.658288 l -0.17995,0.183847 c -0.240263,0.245467 -0.619994,0.246782 -0.897314,0.0031 z m 17.127044,-0.01256 -0.177733,-0.193281 v -8.043911 -8.043933 l 0.199609,-0.203923 c 0.260226,-0.265866 0.636856,-0.276808 0.898067,-0.02611 l 0.185284,0.177832 v 8.079468 8.079458 l -0.179948,0.183843 c -0.253011,0.258488 -0.682941,0.254106 -0.925279,-0.0094 z m -14.69684,-1.263851 -0.179947,-0.183842 v -6.921478 c 0,-6.789678 0.0028,-6.925077 0.145464,-7.110413 0.183101,-0.237812 0.474876,-0.315543 0.749007,-0.199532 0.443475,0.18767 0.425145,-0.128111 0.425145,7.324424 v 6.813801 l -0.189797,0.230439 c -0.249745,0.303234 -0.67811,0.324245 -0.949872,0.0466 z m 12.455889,-0.187187 c -0.405427,-0.174466 -0.392734,-0.0066 -0.392734,-5.193936 v -4.782633 l 0.214297,-0.218939 c 0.288118,-0.294353 0.602906,-0.294353 0.891022,0 l 0.214297,0.218939 v 4.795135 4.795131 l -0.164951,0.191506 c -0.182757,0.212178 -0.520756,0.298592 -0.761931,0.194811 z m -5.09034,-0.222399 -0.214297,-0.218934 v -6.328988 -6.328997 l 0.189798,-0.230443 c 0.25635,-0.311256 0.683789,-0.32577 0.95004,-0.03224 l 0.179778,0.198182 v 6.314527 c 0,4.468261 -0.0238,6.36788 -0.0814,6.497033 -0.174577,0.391446 -0.70237,0.458401 -1.023922,0.12989 z m 12.271157,-0.111629 -0.205694,-0.180762 v -5.630396 -5.630413 l 0.205694,-0.180762 c 0.277317,-0.243701 0.657039,-0.242395 0.897316,0.0031 l 0.179948,0.183847 v 5.624248 5.624247 l -0.179948,0.183843 c -0.240277,0.245476 -0.619999,0.246782 -0.897316,0.0031 z m -24.337897,-0.527605 c -0.127872,-0.05683 -0.268079,-0.171255 -0.311576,-0.25429 -0.054,-0.103097 -0.07908,-1.550714 -0.07908,-4.564843 0,-4.309378 0.0035,-4.418414 0.147519,-4.60548 0.290987,-0.377938 0.939481,-0.29413 1.101936,0.142415 0.04172,0.112107 0.07016,1.933834 0.07016,4.494083 0,4.74362 0.0086,4.651459 -0.448584,4.814282 -0.128207,0.04566 -0.236428,0.0817 -0.24049,0.08009 -0.0041,-0.0018 -0.112012,-0.04943 -0.239881,-0.106254 z m 26.813715,-0.609012 -0.225561,-0.193907 v -3.166453 c 0,-3.059438 0.005,-3.172936 0.147517,-3.358057 0.297008,-0.385762 0.907339,-0.300805 1.090858,0.151841 0.0623,0.153656 0.08032,1.065673 0.06531,3.305634 l -0.02072,3.093434 -0.205694,0.180708 c -0.267603,0.235089 -0.568304,0.230426 -0.851703,-0.01319 z m -17.186584,-1.113253 -0.193984,-0.183677 v -4.014072 -4.01409 l 0.179947,-0.183843 c 0.240277,-0.245485 0.619999,-0.246786 0.897317,-0.0031 l 0.205697,0.180762 v 4.020082 4.020077 l -0.205697,0.180762 c -0.273089,0.239985 -0.627976,0.238818 -0.88328,-0.0031 z m 4.897869,-1.52e-4 -0.17995,-0.183865 v -4.013902 -4.01392 l 0.17995,-0.183843 c 0.240249,-0.245454 0.619983,-0.246782 0.897314,-0.0031 l 0.205697,0.180713 0.022,3.770223 c 0.01208,2.07362 0.0017,3.88352 -0.02319,4.022005 -0.10248,0.571174 -0.72428,0.811415 -1.101817,0.42571 z m 14.154072,-0.744026 c -0.243303,-0.248571 -0.273802,-0.503495 -0.245888,-2.055314 0.0243,-1.350722 0.02544,-1.3589 0.216702,-1.554158 0.139149,-0.142048 0.268335,-0.196286 0.467534,-0.196286 0.199196,0 0.328381,0.05424 0.46753,0.196286 0.191264,0.195258 0.192405,0.203436 0.2167,1.554158 0.01344,0.746825 0.003,1.474539 -0.02319,1.617146 -0.06734,0.366697 -0.335514,0.617025 -0.661044,0.617025 -0.179776,0 -0.318784,-0.05673 -0.438348,-0.178879 z m -31.220978,0.01918 c -0.288251,-0.171183 -0.341384,-0.504832 -0.340952,-2.141017 5.36e-4,-1.652739 0.05532,-2.044775 0.312,-2.228448 0.186822,-0.133691 0.514211,-0.148876 0.724984,-0.03363 0.303732,0.166069 0.355533,0.48713 0.355533,2.203493 0,1.716371 -0.0518,2.037428 -0.355533,2.203501 -0.187132,0.102319 -0.520318,0.10045 -0.696032,-0.004 z"
       id="path5594" />
    <text
       xml:space="preserve"
       style="font-style:normal;font-weight:normal;font-size:6.64274px;line-height:1.25;font-family:sans-serif;letter-spacing:0px;word-spacing:0px;fill:#ececec;fill-opacity:1;stroke:none;stroke-width:0.166069"
       x="23.899443"
       y="-5.8916683"
       id="text7913"><tspan
         sodipodi:role="line"
         id="tspan7911"
         style="stroke-width:0.166069;fill:#ececec"
         x="23.899443"
         y="-5.8916683">AUDIO</tspan></text>
    <text
       xml:space="preserve"
       style="font-style:normal;font-weight:normal;font-size:6.64274px;line-height:1.25;font-family:sans-serif;letter-spacing:0px;word-spacing:0px;fill:#ececec;fill-opacity:1;stroke:none;stroke-width:0.166069"
       x="152.30324"
       y="-5.4044938"
       id="text7913-9"><tspan
         sodipodi:role="line"
         id="tspan7911-3"
         style="stroke-width:0.166069;fill:#ececec"
         x="152.30324"
         y="-5.4044938">AUDIO</tspan></text>
    <text
       xml:space="preserve"
       style="font-style:normal;font-weight:normal;font-size:6.64274px;line-height:1.25;font-family:sans-serif;letter-spacing:0px;word-spacing:0px;fill:#ececec;fill-opacity:1;stroke:none;stroke-width:0.166069"
       x="92.997948"
       y="-5.9828091"
       id="text9121"><tspan
         sodipodi:role="line"
         id="tspan9119"
         style="stroke-width:0.166069;fill:#ececec"
         x="92.997948"
         y="-5.9828091">MP3</tspan></text>
    <path
       id="decodersymbol"
       style="fill-opacity:1;stroke-width:0.726972;stroke-dashoffset:1.85158"
       fill="#e6e6e6"
       d="m 56.971182,-32.297659 20.921188,6.822986 v 8.330864 l -20.921188,5.767342 z"
       sodipodi:nodetypes="ccccc" />
    <text
       xml:space="preserve"
       style="font-style:normal;font-weight:normal;font-size:3.53732px;line-height:1.25;font-family:sans-serif;letter-spacing:0px;word-spacing:0px;fill:#000000;fill-opacity:1;stroke:none;stroke-width:0.0884326"
       x="59.456181"
       y="-20.173239"
       id="text7913-3"><tspan
         sodipodi:role="line"
         id="tspan7911-4"
         style="stroke-width:0.0884326"
         x="59.456181"
         y="-20.173239">encoding</tspan></text>
    <path
       id="decodersymbol-8"
       style="fill-opacity:1;stroke-width:0.726972;stroke-dashoffset:1.85158"
       fill="#e6e6e6"
       d="m 140.84791,-32.270779 -20.92119,6.822986 v 8.330863 l 20.92119,5.767342 z"
       sodipodi:nodetypes="ccccc" />
    <text
       xml:space="preserve"
       style="font-style:normal;font-weight:normal;font-size:3.53732px;line-height:1.25;font-family:sans-serif;letter-spacing:0px;word-spacing:0px;fill:#000000;fill-opacity:1;stroke:none;stroke-width:0.0884326"
       x="122.41172"
       y="-20.14636"
       id="text7913-3-5"><tspan
         sodipodi:role="line"
         id="tspan7911-4-7"
         style="stroke-width:0.0884326"
         x="122.41172"
         y="-20.14636">decoding</tspan></text>
    <path
       style="fill:#ececec;stroke-width:0.073312"
       d="m 170.58059,-13.19684 c -0.12787,-0.05562 -0.26808,-0.167633 -0.31157,-0.248906 -0.0548,-0.102382 -0.0791,-2.064892 -0.0791,-6.38975 v -6.241978 l 0.2143,-0.214297 c 0.14625,-0.146256 0.28771,-0.214293 0.44551,-0.214293 0.1578,0 0.29925,0.06804 0.44551,0.214293 l 0.2143,0.214297 v 6.204146 c 0,6.829469 0.0195,6.538943 -0.44859,6.702096 -0.1282,0.04471 -0.23642,0.07997 -0.24049,0.07839 -0.004,-0.0018 -0.11201,-0.04838 -0.23988,-0.104001 z m -14.75174,-0.945512 c -0.38125,-0.217803 -0.36924,-0.005 -0.37203,-6.594036 -0.003,-6.702843 -0.0159,-6.491081 0.4089,-6.652571 0.29066,-0.110511 0.4402,-0.0843 0.68255,0.119633 l 0.22557,0.189798 v 6.294227 6.294223 l -0.16496,0.187451 c -0.19942,0.22662 -0.54175,0.297398 -0.78003,0.161275 z m -5.04418,-0.737395 -0.2057,-0.176912 -0.0188,-5.449782 c -0.0184,-5.31644 -0.0153,-5.455563 0.12602,-5.686078 0.22635,-0.369223 0.71046,-0.412301 1.03102,-0.09175 0.14158,0.141583 0.14476,0.266291 0.14476,5.683145 v 5.538388 l -0.17995,0.179948 c -0.24026,0.240267 -0.61999,0.24155 -0.89732,0.0031 z m 17.12704,-0.0123 -0.17773,-0.189185 v -7.87347 -7.873464 l 0.19961,-0.199609 c 0.26022,-0.260227 0.63685,-0.270936 0.89806,-0.02553 l 0.18529,0.174064 v 7.908248 7.908252 l -0.17995,0.179948 c -0.25301,0.25301 -0.68294,0.248718 -0.92528,-0.0092 z m -14.69684,-1.237067 -0.17994,-0.179947 v -6.774802 c 0,-6.645797 0.003,-6.778325 0.14546,-6.959735 0.1831,-0.232773 0.47487,-0.308854 0.74901,-0.195307 0.44347,0.183695 0.42514,-0.125396 0.42514,7.169212 v 6.669433 l -0.1898,0.225556 c -0.24974,0.296808 -0.67811,0.317377 -0.94987,0.04561 z m 12.45589,-0.183216 c -0.40543,-0.170772 -0.39273,-0.0064 -0.39273,-5.083877 V -26.0775 l 0.2143,-0.214297 c 0.28811,-0.288115 0.6029,-0.288115 0.89102,0 l 0.21429,0.214297 v 4.693518 4.693522 l -0.16495,0.187446 c -0.18276,0.20768 -0.52075,0.292266 -0.76193,0.190684 z m -5.09034,-0.217691 -0.2143,-0.214293 v -6.194881 -6.194876 l 0.1898,-0.225561 c 0.25635,-0.30466 0.68379,-0.318866 0.95004,-0.03157 l 0.17978,0.193983 v 6.180711 c 0,4.373575 -0.0238,6.232942 -0.0814,6.359354 -0.17457,0.383156 -0.70237,0.448693 -1.02392,0.12714 z m 12.27116,-0.109259 -0.2057,-0.176934 v -5.511094 -5.511094 l 0.2057,-0.176934 c 0.27732,-0.238537 0.65704,-0.237262 0.89732,0.0031 l 0.17994,0.179948 v 5.505066 5.505062 l -0.17994,0.179948 c -0.24028,0.240276 -0.62,0.24155 -0.89732,0.0031 z m -24.3379,-0.516435 c -0.12787,-0.05562 -0.26808,-0.167629 -0.31157,-0.248906 -0.054,-0.100907 -0.0791,-1.51785 -0.0791,-4.468109 0,-4.21805 0.004,-4.324778 0.14752,-4.507878 0.29099,-0.369934 0.93948,-0.287897 1.10194,0.139392 0.0417,0.109738 0.0702,1.892858 0.0702,4.398851 0,4.643098 0.009,4.552892 -0.44859,4.712262 -0.1282,0.04471 -0.23642,0.07997 -0.24049,0.07839 -0.004,-0.0018 -0.11201,-0.04838 -0.23988,-0.104 z m 26.81372,-0.596107 -0.22556,-0.189799 v -3.099354 c 0,-2.994607 0.005,-3.105699 0.14751,-3.286895 0.29701,-0.377588 0.90734,-0.294433 1.09086,0.148621 0.0623,0.150397 0.0803,1.043093 0.0653,3.235585 l -0.0207,3.027884 -0.20569,0.176876 c -0.2676,0.230108 -0.56831,0.225547 -0.8517,-0.01292 z m -17.18658,-1.089663 -0.19399,-0.179782 v -3.929026 -3.929021 l 0.17995,-0.179948 c 0.24028,-0.24028 0.62,-0.241555 0.89731,-0.0031 l 0.2057,0.17693 v 3.934888 3.934887 l -0.2057,0.17693 c -0.27309,0.234901 -0.62797,0.233757 -0.88327,-0.0027 z m 4.89786,-1.47e-4 -0.17995,-0.17997 v -3.928856 -3.928856 l 0.17995,-0.179948 c 0.24025,-0.240254 0.61999,-0.24155 0.89732,-0.0031 l 0.20569,0.176885 0.022,3.690324 c 0.0121,2.029679 0.002,3.801228 -0.0232,3.936779 -0.10248,0.55907 -0.72428,0.794222 -1.10182,0.416682 z m 14.15407,-0.728264 c -0.2433,-0.243304 -0.2738,-0.492827 -0.24588,-2.011758 0.0243,-1.3221 0.0254,-1.330104 0.2167,-1.521221 0.13915,-0.139039 0.26833,-0.192128 0.46753,-0.192128 0.1992,0 0.32838,0.05309 0.46754,0.192128 0.19126,0.191117 0.1924,0.199121 0.21669,1.521221 0.0134,0.731 0.003,1.443293 -0.0232,1.582877 -0.0673,0.35893 -0.33552,0.60395 -0.66105,0.60395 -0.17977,0 -0.31878,-0.05553 -0.43835,-0.175092 z m -31.22097,0.01878 c -0.28825,-0.167562 -0.34138,-0.494137 -0.34095,-2.095651 4.4e-4,-1.617714 0.0553,-2.001443 0.31199,-2.181225 0.18682,-0.130856 0.51422,-0.145723 0.72499,-0.03291 0.30373,0.162549 0.35553,0.476809 0.35553,2.156801 0,1.679997 -0.0518,1.994253 -0.35553,2.156807 -0.18713,0.10015 -0.52032,0.09832 -0.69603,-0.004 z"
       id="path16138" />
    <text
       xml:space="preserve"
       style="font-style:normal;font-weight:normal;font-size:4.73224px;line-height:1.25;font-family:sans-serif;letter-spacing:0px;word-spacing:0px;fill:#ececec;fill-opacity:1;stroke:none;stroke-width:0.118306"
       x="81.11158"
       y="-19.699324"
       id="text18216"><tspan
         sodipodi:role="line"
         id="tspan18214"
         style="stroke-width:0.118306;fill:#ececec"
         x="81.11158"
         y="-19.699324">010010010011</tspan></text>
  </g>
</svg>
