<?xml version="1.0" encoding="UTF-8" standalone="no"?>
<!-- Created with Inkscape (http://www.inkscape.org/) -->

<svg
   width="250mm"
   height="100mm"
   viewBox="0 0 250 100"
   version="1.1"
   id="svg5"
   inkscape:version="1.1.2 (0a00cf5339, 2022-02-04)"
   sodipodi:docname="encoderimg.svg"
   xmlns:inkscape="http://www.inkscape.org/namespaces/inkscape"
   xmlns:sodipodi="http://sodipodi.sourceforge.net/DTD/sodipodi-0.dtd"
   xmlns="http://www.w3.org/2000/svg"
   xmlns:svg="http://www.w3.org/2000/svg">
  <sodipodi:namedview
     id="namedview7"
     pagecolor="#ffffff"
     bordercolor="#666666"
     borderopacity="1.0"
     inkscape:pageshadow="2"
     inkscape:pageopacity="0.0"
     inkscape:pagecheckerboard="0"
     inkscape:document-units="mm"
     showgrid="false"
     inkscape:zoom="1.1936092"
     inkscape:cx="173.42359"
     inkscape:cy="388.73695"
     inkscape:window-width="1488"
     inkscape:window-height="1053"
     inkscape:window-x="576"
     inkscape:window-y="272"
     inkscape:window-maximized="0"
     inkscape:current-layer="layer1"
     fit-margin-top="0"
     fit-margin-left="0"
     fit-margin-right="0"
     fit-margin-bottom="0" />
  <defs
     id="defs2" />
  <g
     inkscape:label="Layer 1"
     inkscape:groupmode="layer"
     id="layer1"
     transform="translate(-11.407786,-55.786156)">
    <path
       id="encodersymbol"
       style="fill-opacity:1;stroke-width:1.39087;stroke-dashoffset:1.85158"
       fill="#e6e6e6"
       d="M 72.181188,85.689043 112.2085,98.743083 V 114.68204 L 72.181188,125.71636 Z"
       sodipodi:nodetypes="ccccc" />
    <text
       xml:space="preserve"
       style="font-style:normal;font-weight:normal;font-size:4.92257px;line-height:1.25;font-family:sans-serif;letter-spacing:0px;word-spacing:0px;fill:#000000;fill-opacity:1;stroke:none;stroke-width:0.123064"
       x="81.707352"
       y="107.06939"
       id="text2942-7"><tspan
         sodipodi:role="line"
         style="font-style:normal;font-variant:normal;font-weight:normal;font-stretch:normal;font-family:monospace;-inkscape-font-specification:monospace;stroke-width:0.123064"
         x="81.707352"
         y="107.06939"
         id="encoder">encoder</tspan></text>
    <path
       style="fill:none;stroke:#000000;stroke-width:0.184001px;stroke-linecap:butt;stroke-linejoin:miter;stroke-opacity:1"
       d="m 65.426695,105.42314 h 5.249707"
       id="path3723" />
    <path
       style="fill:none;stroke:#000000;stroke-width:0.184001px;stroke-linecap:butt;stroke-linejoin:miter;stroke-opacity:1"
       d="m 114.47561,105.42314 h 5.24971"
       id="path3912" />
    <rect
       style="stroke-width:1.39087;stroke-dashoffset:1.85158"
       id="rect3936"
       class="vbox"
       fill="#e8e8e8"
       width="17.806032"
       height="11.004733"
       x="121.62735"
       y="100.03534"
       ry="1.6584237" />
    <text
       xml:space="preserve"
       style="font-style:normal;font-variant:normal;font-weight:normal;font-stretch:normal;font-size:4.33778px;line-height:1.25;font-family:monospace;-inkscape-font-specification:'monospace, Normal';font-variant-ligatures:normal;font-variant-caps:normal;font-variant-numeric:normal;font-variant-east-asian:normal;letter-spacing:0px;word-spacing:0px;fill:#000000;fill-opacity:1;stroke:none;stroke-width:0.108445"
       x="122.89825"
       y="107.41506"
       id="text5769"><tspan
         sodipodi:role="line"
         id="vector1"
         class="vector"
         style="font-style:normal;font-variant:normal;font-weight:normal;font-stretch:normal;font-size:4.33778px;font-family:monospace;-inkscape-font-specification:'monospace, Normal';font-variant-ligatures:normal;font-variant-caps:normal;font-variant-numeric:normal;font-variant-east-asian:normal;stroke-width:0.108445"
         x="122.89825"
         y="107.41506">0.051</tspan></text>
    <rect
       style="stroke-width:1.39087;stroke-dashoffset:1.85158"
       id="rect7661"
       class="vbox"
       fill="#e8e8e8"
       width="17.806032"
       height="11.004733"
       x="143.11343"
       y="100.03534"
       ry="1.6584237" />
    <text
       xml:space="preserve"
       style="font-style:normal;font-variant:normal;font-weight:normal;font-stretch:normal;font-size:4.33778px;line-height:1.25;font-family:monospace;-inkscape-font-specification:'monospace, Normal';font-variant-ligatures:normal;font-variant-caps:normal;font-variant-numeric:normal;font-variant-east-asian:normal;letter-spacing:0px;word-spacing:0px;fill:#000000;fill-opacity:1;stroke:none;stroke-width:0.108445"
       x="144.38432"
       y="107.41506"
       id="text7667"><tspan
         sodipodi:role="line"
         id="tspan7665"
         class="vector"
         style="font-style:normal;font-variant:normal;font-weight:normal;font-stretch:normal;font-size:4.33778px;font-family:monospace;-inkscape-font-specification:'monospace, Normal';font-variant-ligatures:normal;font-variant-caps:normal;font-variant-numeric:normal;font-variant-east-asian:normal;stroke-width:0.108445"
         x="144.38432"
         y="107.41506">0.051</tspan></text>
    <rect
       style="stroke-width:1.39087;stroke-dashoffset:1.85158"
       id="rect7775"
       class="vbox"
       fill="#e8e8e8"
       width="17.806032"
       height="11.004733"
       x="164.5995"
       y="100.03534"
       ry="1.6584237" />
    <text
       xml:space="preserve"
       style="font-style:normal;font-variant:normal;font-weight:normal;font-stretch:normal;font-size:4.33778px;line-height:1.25;font-family:monospace;-inkscape-font-specification:'monospace, Normal';font-variant-ligatures:normal;font-variant-caps:normal;font-variant-numeric:normal;font-variant-east-asian:normal;letter-spacing:0px;word-spacing:0px;fill:#000000;fill-opacity:1;stroke:none;stroke-width:0.108445"
       x="165.87039"
       y="107.41506"
       id="text7779"><tspan
         sodipodi:role="line"
         id="tspan7777"
         class="vector"
         style="font-style:normal;font-variant:normal;font-weight:normal;font-stretch:normal;font-size:4.33778px;font-family:monospace;-inkscape-font-specification:'monospace, Normal';font-variant-ligatures:normal;font-variant-caps:normal;font-variant-numeric:normal;font-variant-east-asian:normal;stroke-width:0.108445"
         x="165.87039"
         y="107.41506">0.051</tspan></text>
    <rect
       style="stroke-width:1.39087;stroke-dashoffset:1.85158"
       id="rect7783"
       class="vbox"
       fill="#e8e8e8"
       width="17.806032"
       height="11.004733"
       x="186.08557"
       y="100.03534"
       ry="1.6584237" />
    <text
       xml:space="preserve"
       style="font-style:normal;font-variant:normal;font-weight:normal;font-stretch:normal;font-size:4.33778px;line-height:1.25;font-family:monospace;-inkscape-font-specification:'monospace, Normal';font-variant-ligatures:normal;font-variant-caps:normal;font-variant-numeric:normal;font-variant-east-asian:normal;letter-spacing:0px;word-spacing:0px;fill:#000000;fill-opacity:1;stroke:none;stroke-width:0.108445"
       x="187.35646"
       y="107.41506"
       id="text7787"><tspan
         sodipodi:role="line"
         id="tspan7785"
         class="vector"
         style="font-style:normal;font-variant:normal;font-weight:normal;font-stretch:normal;font-size:4.33778px;font-family:monospace;-inkscape-font-specification:'monospace, Normal';font-variant-ligatures:normal;font-variant-caps:normal;font-variant-numeric:normal;font-variant-east-asian:normal;stroke-width:0.108445"
         x="187.35646"
         y="107.41506">0.051</tspan></text>
    <rect
       style="stroke-width:1.39087;stroke-dashoffset:1.85158"
       id="rect7789"
       class="vbox"
       fill="#e8e8e8"
       width="17.806032"
       height="11.004733"
       x="207.57162"
       y="100.03534"
       ry="1.6584237" />
    <text
       xml:space="preserve"
       style="font-style:normal;font-variant:normal;font-weight:normal;font-stretch:normal;font-size:4.33778px;line-height:1.25;font-family:monospace;-inkscape-font-specification:'monospace, Normal';font-variant-ligatures:normal;font-variant-caps:normal;font-variant-numeric:normal;font-variant-east-asian:normal;letter-spacing:0px;word-spacing:0px;fill:#000000;fill-opacity:1;stroke:none;stroke-width:0.108445"
       x="208.84254"
       y="107.41506"
       id="text7793"><tspan
         sodipodi:role="line"
         id="tspan7791"
         style="font-style:normal;font-variant:normal;font-weight:normal;font-stretch:normal;font-size:4.33778px;font-family:monospace;-inkscape-font-specification:'monospace, Normal';font-variant-ligatures:normal;font-variant-caps:normal;font-variant-numeric:normal;font-variant-east-asian:normal;stroke-width:0.108445"
         x="208.84254"
         y="107.41506">....</tspan></text>
    <rect
       style="stroke-width:1.39087;stroke-dashoffset:1.85158"
       id="rect7795"
       class="vbox"
       fill="#e8e8e8"
       width="17.806032"
       height="11.004733"
       x="229.05769"
       y="100.03534"
       ry="1.6584237" />
    <text
       xml:space="preserve"
       style="font-style:normal;font-variant:normal;font-weight:normal;font-stretch:normal;font-size:4.33778px;line-height:1.25;font-family:monospace;-inkscape-font-specification:'monospace, Normal';font-variant-ligatures:normal;font-variant-caps:normal;font-variant-numeric:normal;font-variant-east-asian:normal;letter-spacing:0px;word-spacing:0px;fill:#000000;fill-opacity:1;stroke:none;stroke-width:0.108445"
       x="230.32861"
       y="107.41506"
       id="text7801"><tspan
         sodipodi:role="line"
         id="tspan7799"
         class="vector"
         style="font-style:normal;font-variant:normal;font-weight:normal;font-stretch:normal;font-size:4.33778px;font-family:monospace;-inkscape-font-specification:'monospace, Normal';font-variant-ligatures:normal;font-variant-caps:normal;font-variant-numeric:normal;font-variant-east-asian:normal;stroke-width:0.108445"
         x="230.32861"
         y="107.41506">0.051</tspan></text>
    <rect
       style="fill:#e6e6e6;stroke-width:1.40633;stroke-dashoffset:1.85158"
       id="rect2091"
       width="41.584293"
       height="41.584293"
       x="20.855658"
       y="85.090942"
       ry="2.7766981" />
    <path
       style="stroke-width:0.0552681"
       d="m 46.769031,122.58 c -2.599174,-0.29939 -3.857257,-1.14925 -4.307528,-2.90981 -0.185317,-0.72458 -0.240141,-1.65877 -0.208937,-3.5606 0.03398,-2.0709 0.102665,-2.52539 0.508501,-3.36473 0.197976,-0.40944 0.314761,-0.56941 0.639037,-0.87531 0.421547,-0.39766 1.114309,-0.78393 1.654166,-0.92229 0.152783,-0.0392 0.277795,-0.0866 0.277795,-0.10556 0,-0.0189 -0.126928,-0.0669 -0.282053,-0.10666 -0.425726,-0.10911 -0.989225,-0.41211 -1.274192,-0.68516 -0.335402,-0.32137 -0.517321,-0.64243 -0.665751,-1.17495 -0.110979,-0.39819 -0.121795,-0.56121 -0.120667,-1.8191 0.0029,-3.14483 0.486717,-6.13391 1.005,-6.20791 0.358003,-0.0511 1.264894,0.72602 1.943001,1.66501 l 0.35133,0.4865 0.309238,-0.0407 c 0.401137,-0.0528 2.759662,-0.0528 3.160799,0 l 0.309238,0.0407 0.333487,-0.45886 c 0.751707,-1.03433 1.546621,-1.72528 1.945676,-1.69117 0.149977,0.0128 0.21501,0.056 0.297243,0.19732 0.372666,0.64048 0.720352,3.50487 0.726049,5.98148 0.0029,1.26596 -0.0058,1.38404 -0.128548,1.81468 -0.151054,0.52845 -0.453597,1.02149 -0.798724,1.30163 -0.264007,0.2143 -0.785262,0.48645 -1.128357,0.58912 -0.129184,0.0387 -0.234885,0.0853 -0.234885,0.10369 0,0.0184 0.163945,0.0803 0.364322,0.13773 1.646301,0.47148 2.467929,1.47702 2.736086,3.34854 0.106576,0.74385 0.09006,3.8634 -0.02429,4.58272 -0.05032,0.31667 -0.07704,0.59025 -0.05936,0.60794 0.01771,0.0177 0.483992,0.0316 1.036212,0.0308 1.125985,-0.001 1.420995,-0.056 2.124906,-0.39241 0.915551,-0.43756 1.447463,-1.31849 1.447463,-2.39725 0,-1.11973 -0.560115,-2.054 -1.478581,-2.46632 -0.563752,-0.25307 -0.732317,-0.3451 -0.887746,-0.48468 -0.433252,-0.38905 -0.364358,-1.00882 0.205315,-1.84703 0.444365,-0.65383 0.750558,-0.70248 1.710003,-0.27173 0.727177,0.32648 1.160263,0.62658 1.725822,1.19587 1.054019,1.06098 1.50831,2.20645 1.503481,3.79098 -0.0058,1.97022 -0.720518,3.46509 -2.14058,4.47844 -0.463206,0.33053 -1.377138,0.75933 -1.990148,0.93373 -1.462378,0.41605 -3.240567,0.40651 -4.581092,-0.0246 -0.489639,-0.15746 -0.493933,-0.15781 -0.691577,-0.0574 -0.306035,0.15543 -1.027182,0.36799 -1.608213,0.47401 -0.39544,0.0722 -0.893422,0.0995 -2.017289,0.11073 -0.820732,0.008 -1.579286,0.005 -1.685681,-0.007 z m 4.420682,-14.1011 c 0.251312,-0.12604 0.330566,-0.29692 0.331564,-0.7148 0.0014,-0.6536 -0.164943,-0.81829 -0.824665,-0.8157 -0.234162,7.2e-4 -0.47481,0.033 -0.547087,0.0728 -0.258411,0.14253 -0.364597,0.72389 -0.213275,1.16765 0.08578,0.25153 0.350332,0.3867 0.756819,0.3867 0.179092,0 0.383135,-0.0397 0.496644,-0.0966 z m -4.766995,-0.13968 c 0.140925,-0.1409 0.152876,-0.18663 0.152876,-0.58508 0,-0.69571 -0.135748,-0.83647 -0.806734,-0.83647 -0.641604,0 -0.823675,0.17715 -0.823675,0.80139 0,0.64858 0.186698,0.81253 0.897217,0.78785 0.383128,-0.0133 0.443295,-0.0307 0.580316,-0.16769 z"
       id="cat"
       class="img1" />
    <path
       style="stroke-width:0.0522176"
       d="m 53.583579,123.25058 c 2.311531,-0.29263 4.053418,-2.10014 4.82469,-5.00643 0.235384,-0.88696 0.321564,-1.48935 0.355299,-2.48342 0.02386,-0.7033 0.01164,-1.00265 -0.05769,-1.41743 l -0.08793,-0.52583 0.130298,-0.51462 c 0.292985,-1.1572 0.525628,-2.77465 0.595549,-4.14056 l 0.03593,-0.70174 0.163714,-0.0423 c 0.299788,-0.0774 0.653193,-0.36438 0.824021,-0.66903 l 0.161046,-0.2872 0.01699,-1.31764 c 0.02097,-1.62402 -0.0094,-1.77661 -0.436361,-2.19227 -0.153903,-0.14983 -0.339625,-0.28744 -0.412719,-0.30578 -0.102108,-0.0256 -0.14556,-0.0835 -0.1875,-0.24976 -0.11886,-0.47109 -0.384761,-1.17297 -0.624498,-1.6484 -0.932369,-1.849024 -2.359458,-2.898884 -4.256521,-3.131364 -0.638697,-0.0783 -6.681315,-0.0789 -7.105053,-6.5e-4 -0.87604,0.16159 -1.657253,0.89594 -2.199641,2.067694 -0.633817,1.36927 -1.069383,3.36724 -1.295541,5.94278 -0.08217,0.93569 -0.195598,3.8271 -0.152855,3.89625 0.01236,0.02 -0.124441,0.1057 -0.30396,0.19051 -0.572608,0.27052 -0.925739,0.73564 -1.044873,1.37623 -0.114847,0.61757 0.211113,1.36142 0.761418,1.73756 0.263002,0.17977 0.754954,0.34489 1.027528,0.34489 0.272575,0 0.764527,-0.16512 1.027529,-0.34489 0.556782,-0.38057 0.876431,-1.11914 0.758591,-1.75276 -0.03217,-0.17289 -0.108781,-0.4183 -0.170293,-0.54536 -0.14295,-0.2953 -0.49663,-0.6493 -0.773405,-0.77411 -0.118694,-0.0536 -0.215813,-0.11678 -0.215813,-0.14057 0,-0.0238 0.250928,-0.53717 0.557614,-1.14086 0.407716,-0.80257 0.58234,-1.0976 0.649629,-1.0976 0.05061,0 0.106525,0.0234 0.124231,0.0521 0.01771,0.0286 0.05422,0.41048 0.08103,0.84853 0.08923,1.45491 0.253733,2.60577 0.549559,3.84488 0.162203,0.67941 0.173034,0.77131 0.113792,0.96602 -0.108001,0.35498 -0.0853,2.49265 0.03333,3.13897 0.581205,3.16639 2.138642,5.28131 4.324633,5.8726 0.724075,0.19586 1.459892,0.24639 2.208202,0.15166 z m -1.314715,-0.88393 c -0.5849,-0.0798 -0.919753,-0.18504 -1.444413,-0.45405 -1.396868,-0.71621 -2.432162,-2.41743 -2.867525,-4.71199 -0.09394,-0.49508 -0.114211,-0.79298 -0.115505,-1.69706 -0.0022,-1.25044 0.02899,-1.41232 0.333985,-1.75885 0.371639,-0.42221 1.033602,-0.68828 2.116013,-0.85049 0.750472,-0.11247 4.426084,-0.1111 5.187314,0.002 1.172864,0.17415 1.936826,0.54343 2.202793,1.06475 0.196661,0.38552 0.264918,1.48835 0.154568,2.49769 -0.207079,1.8942 -0.868398,3.5372 -1.85035,4.59714 -0.944681,1.0197 -2.313273,1.50241 -3.71688,1.31094 z m 2.202417,-6.58676 c 0.267745,-0.15355 0.318535,-0.48473 0.106808,-0.69646 l -0.128172,-0.12817 h -1.519054 -1.519061 l -0.128165,0.12817 c -0.215466,0.21546 -0.159412,0.55187 0.116423,0.69878 0.158003,0.0841 2.924085,0.0821 3.071221,-0.003 z m -10.66007,-2.66484 c -0.482271,-0.33046 -0.542865,-0.98958 -0.129011,-1.40343 0.358662,-0.35866 0.850404,-0.37522 1.230559,-0.0414 0.548598,0.48168 0.36634,1.34135 -0.332199,1.56689 -0.206515,0.0667 -0.580533,0.007 -0.769349,-0.12202 z m 13.532042,-0.60128 c -0.453626,-0.22749 -1.077711,-0.41156 -1.728526,-0.5098 -0.653634,-0.0987 -3.509288,-0.13974 -4.736015,-0.0681 -1.223141,0.0714 -2.234106,0.33724 -2.841231,0.74706 l -0.272119,0.18368 -0.05112,-0.19584 c -0.185339,-0.71041 -0.411367,-2.39741 -0.465245,-3.4725 l -0.03601,-0.718 5.634252,2e-5 h 5.634266 l -0.03615,0.69188 c -0.05292,1.01194 -0.241313,2.43107 -0.457538,3.44677 l -0.05292,0.24845 -0.139183,-0.0982 c -0.07655,-0.054 -0.280166,-0.16893 -0.452483,-0.25536 z m -0.208872,-2.00786 c 0.267745,-0.15356 0.318535,-0.48473 0.1068,-0.69646 l -0.128164,-0.12817 h -1.519061 -1.519054 l -0.128172,0.12817 c -0.215459,0.21546 -0.159412,0.55187 0.11643,0.69878 0.158003,0.0841 2.924085,0.0821 3.071221,-0.003 z m -5.400509,-0.0896 c 0.194752,-0.19475 0.20413,-0.42723 0.02444,-0.60689 l -0.128171,-0.12817 H 50.1205 c -1.424848,0 -1.517015,0.006 -1.640914,0.10326 -0.07223,0.0567 -0.142227,0.16055 -0.155616,0.23057 -0.03557,0.18606 0.09094,0.44243 0.247739,0.50205 0.07818,0.0297 0.748889,0.0518 1.572903,0.0518 h 1.436604 z m -6.899781,-2.57185 c 0.157301,-2.55901 0.446056,-4.38953 0.919557,-5.8294 0.406046,-1.23477 0.957269,-2.084664 1.557387,-2.401234 l 0.267521,-0.14112 1.644854,-0.016 c 0.904671,-0.009 1.818466,-0.009 2.030657,0 l 0.385802,0.016 -0.333588,0.26044 c -1.115914,0.871234 -2.395955,2.368344 -3.698422,4.325574 -0.867922,1.30426 -1.93995,3.13241 -2.559915,4.36545 -0.119583,0.23782 -0.229846,0.41997 -0.245043,0.40477 -0.01518,-0.0152 -0.0014,-0.45821 0.03123,-0.98448 z m 1.726219,-0.31933 c 0,-0.0741 0.990064,-1.75089 1.509533,-2.55652 l 0.328281,-0.50912 h 5.494757 5.494758 l 0.126596,0.13463 c 0.124947,0.13289 0.126805,0.14964 0.143253,1.29239 0.0107,0.74199 -0.0036,1.22783 -0.04107,1.3529 -0.110458,0.37344 0.36125,0.34872 -6.698624,0.35104 -5.160114,0.002 -6.357495,-0.0106 -6.357495,-0.0654 z m 2.50645,-3.98304 c 0,-0.0715 0.976934,-1.30143 1.458532,-1.83627 0.896212,-0.99529 1.771819,-1.69574 2.50128,-2.000904 0.527726,-0.22079 0.921886,-0.27564 1.486975,-0.20693 1.598026,0.1943 2.834514,1.114564 3.633881,2.704534 0.157287,0.31284 0.47515,1.19034 0.47515,1.3117 0,0.0415 -1.331322,0.0575 -4.777906,0.0575 -2.627854,0 -4.777912,-0.0134 -4.777912,-0.0296 z"
       id="santa"
       class="img1" />
    <path
       style="fill:#000000;stroke-width:0.0385359"
       d="m 51.489661,120.90505 c -0.506737,-0.0989 -0.938493,-0.30964 -1.343722,-0.65584 -0.196075,-0.16751 -0.254522,-0.1906 -1.263903,-0.4993 -1.163986,-0.35598 -1.482124,-0.47695 -1.938859,-0.73723 -0.440424,-0.25098 -0.810226,-0.54638 -1.224992,-0.9785 -0.752886,-0.7844 -1.226828,-1.71779 -1.439886,-2.83577 -0.09049,-0.47483 -0.08314,-1.33419 0.01778,-2.0805 0.04295,-0.31769 0.07504,-0.57864 0.07129,-0.57989 -0.0036,-0.001 -0.141214,-0.0674 -0.305434,-0.14702 -0.929022,-0.45029 -1.426331,-1.62626 -1.121641,-2.65227 0.14316,-0.48206 1.328235,-3.39308 1.477612,-3.62961 0.08722,-0.13809 0.258636,-0.34371 0.380937,-0.45694 0.367872,-0.34058 0.630245,-0.45059 1.873825,-0.78562 1.086142,-0.29263 1.130078,-0.30113 1.563612,-0.30257 l 0.446064,-0.001 0.329814,0.16342 c 0.356636,0.17673 0.690586,0.48838 0.84258,0.78632 0.06861,0.13455 0.09139,0.15106 0.182295,0.13234 1.26365,-0.26022 2.664437,-0.26058 3.868643,-0.001 0.09126,0.0197 0.113373,0.004 0.182295,-0.13134 0.151995,-0.29794 0.485951,-0.60959 0.842588,-0.78631 l 0.329807,-0.16342 0.446063,10e-4 c 0.433534,0.001 0.477478,0.01 1.563612,0.30199 1.227457,0.33022 1.498926,0.44251 1.853712,0.76676 0.380654,0.3479 0.504937,0.58967 1.185198,2.30566 0.348077,0.87801 0.65965,1.68661 0.692401,1.7969 0.304994,1.02701 -0.189524,2.20431 -1.114266,2.65272 -0.16769,0.0813 -0.307979,0.14888 -0.311746,0.15013 -0.0036,10e-4 0.02834,0.2622 0.07136,0.57989 0.198382,1.46521 0.04808,2.53782 -0.509137,3.63414 -0.601434,1.18326 -1.648816,2.13352 -2.888716,2.62085 -0.116575,0.0458 -0.666807,0.22146 -1.222737,0.39032 -1.010249,0.30685 -1.010936,0.30714 -1.271689,0.52287 -0.296101,0.24499 -0.76739,0.49048 -1.108678,0.57749 -0.334535,0.0853 -0.8389,0.10339 -1.156076,0.0415 z m 0.931016,-1.91 c 0.384602,-0.22058 0.475547,-0.46033 0.475547,-1.2536 v -0.54687 l -0.257457,-0.10943 c -0.141612,-0.0601 -0.342769,-0.16682 -0.447039,-0.237 -0.104263,-0.0701 -0.203197,-0.12757 -0.219847,-0.12757 -0.01663,0 -0.131953,0.0667 -0.256242,0.14805 -0.124283,0.0814 -0.325686,0.18749 -0.447553,0.23569 l -0.221583,0.0876 v 0.54817 c 0,0.60547 0.04454,0.82611 0.210984,1.04427 0.25314,0.33188 0.784134,0.42804 1.16319,0.21064 z m -3.185359,-1.4453 v -0.40398 l -0.185447,-0.094 c -0.422473,-0.21408 -0.809179,-0.62689 -1.0684,-1.14047 -0.320241,-0.63453 0.09264,-1.32665 0.791415,-1.32665 0.389309,0 0.629862,0.15728 0.86072,0.56274 0.144801,0.25429 0.267333,0.34022 0.483601,0.33907 0.564504,-0.003 0.835062,-0.22093 0.910043,-0.73304 l 0.02567,-0.17522 -0.244052,-0.17079 c -0.533777,-0.37353 -0.995768,-0.92873 -0.995356,-1.19616 6.29e-4,-0.45492 0.905307,-0.7686 2.214658,-0.76796 0.48945,2.4e-4 1.054698,0.0705 1.407568,0.17487 0.450416,0.13326 0.693594,0.35575 0.693146,0.63416 -4.7e-4,0.28868 -0.387443,0.7524 -0.981843,1.17655 l -0.25583,0.18256 0.02559,0.15859 c 0.08082,0.50049 0.350983,0.71349 0.908705,0.71644 0.221604,0.001 0.334398,-0.0818 0.49647,-0.36505 0.225935,-0.39488 0.574691,-0.59623 0.944862,-0.54548 0.655218,0.0898 0.976443,0.7306 0.679077,1.35464 -0.229579,0.48174 -0.62778,0.90569 -1.053188,1.12125 l -0.185324,0.0939 v 0.40811 c 0,0.31035 0.01157,0.4038 0.04815,0.39016 0.02653,-0.01 0.229549,-0.074 0.45124,-0.14263 1.07837,-0.33362 1.841457,-0.95473 2.313006,-1.88268 0.387733,-0.76301 0.462396,-1.41215 0.30631,-2.66306 -0.05907,-0.47363 -0.09537,-0.64915 -0.140058,-0.6777 -0.511328,-0.32677 -0.640635,-0.42423 -0.785334,-0.59192 -0.09361,-0.10846 -0.786795,-1.15531 -1.540411,-2.32631 l -1.370205,-2.12913 -0.286832,-0.0673 c -0.157764,-0.037 -0.486262,-0.0954 -0.729996,-0.12976 -0.616567,-0.087 -1.775882,-0.0583 -2.369964,0.0586 -0.61661,0.12129 -0.663539,0.14087 -0.777244,0.32425 -0.641451,1.03465 -2.654619,4.12155 -2.786239,4.27231 -0.146334,0.16759 -0.281302,0.26912 -0.783332,0.58928 -0.04511,0.0288 -0.08169,0.20953 -0.144265,0.71292 -0.170373,1.37062 -0.0381,2.13704 0.513439,2.97578 0.352161,0.53549 0.834157,0.9688 1.39574,1.25475 0.216182,0.11007 1.06044,0.41587 1.184982,0.42921 0.01591,0.002 0.02892,-0.1787 0.02892,-0.40088 z m -0.231466,-5.29468 c -0.330363,-0.10774 -0.545792,-0.32589 -0.639224,-0.64727 -0.08098,-0.27859 -0.02784,-0.55669 0.151105,-0.79083 0.266479,-0.34867 0.778415,-0.4484 1.1646,-0.22689 0.768423,0.44076 0.513483,1.59596 -0.370157,1.67721 -0.115353,0.0106 -0.253205,0.005 -0.306324,-0.0122 z m 5.485461,-6.2e-4 c -0.606532,-0.15505 -0.87975,-0.88783 -0.523619,-1.40435 0.333559,-0.48376 1.10345,-0.50107 1.461301,-0.0329 0.0689,0.0901 0.142444,0.25009 0.168435,0.36624 0.142328,0.63599 -0.473848,1.2326 -1.106117,1.07097 z m -8.869165,-1.42698 c 0.05206,-0.041 0.678693,-0.98332 1.392494,-2.09412 1.079179,-1.67941 1.297812,-2.04259 1.297812,-2.15589 0,-0.25087 -0.01251,-0.25035 -1.142304,0.0478 -0.870502,0.22968 -1.051525,0.28959 -1.139108,0.37701 -0.07359,0.0734 -0.285538,0.55993 -0.722549,1.65842 -0.497085,1.24951 -0.61841,1.59079 -0.61841,1.73948 0,0.23617 0.07404,0.32624 0.346818,0.42187 0.277499,0.0973 0.466279,0.099 0.585247,0.006 z m 13.239896,0.0121 c 0.298704,-0.0868 0.394601,-0.19217 0.394601,-0.43341 0,-0.15647 -0.111818,-0.47208 -0.61841,-1.7455 -0.434951,-1.09333 -0.649303,-1.58556 -0.722542,-1.65921 -0.08821,-0.0887 -0.262511,-0.14631 -1.139549,-0.37664 -1.129536,-0.29667 -1.14187,-0.29719 -1.14187,-0.0474 0,0.11329 0.218632,0.47648 1.297819,2.15589 0.713801,1.11081 1.340417,2.05316 1.392487,2.09412 0.115454,0.0908 0.255787,0.094 0.537464,0.0122 z"
       id="dog"
       class="img1" />
    <path
       style="stroke-width:0.0764085"
       d="m 25.52643,115.58712 c -0.09149,-0.0915 -0.152818,-0.25469 -0.152818,-0.40672 0,-0.21684 0.118418,-0.38128 0.811579,-1.12702 4.441599,-4.77844 6.992396,-10.42826 7.517851,-16.651474 0.08295,-0.9824 0.09741,-1.7574 0.03275,-1.7574 -0.0783,0 -1.259819,0.9255 -2.276517,1.78323 -1.261864,1.06456 -3.328822,3.129484 -4.505388,4.500964 -0.523301,0.60999 -0.975835,1.06899 -1.079592,1.09504 -0.252388,0.0633 -0.640938,-0.15825 -0.701655,-0.40015 -0.08162,-0.32517 0.03767,-1.8992 0.206913,-2.729514 0.60523,-2.96993 2.43791,-5.06293 5.363491,-6.12535 0.387755,-0.14081 0.683942,-0.25774 0.658211,-0.25983 -0.02574,-0.002 -0.472735,-0.0914 -0.993317,-0.19839 -0.520582,-0.10701 -2.545353,-0.52027 -4.499503,-0.91838 -1.954143,-0.39811 -3.61512,-0.74329 -3.691055,-0.76707 -0.07594,-0.0238 -0.193617,-0.15975 -0.26152,-0.30213 -0.173966,-0.36481 -0.05466,-0.57837 0.532236,-0.95298 1.316856,-0.84047 3.076658,-1.58878 4.415702,-1.87767 0.960522,-0.20723 2.569169,-0.19272 3.465135,0.0312 1.757807,0.43942 3.409472,1.59903 4.538754,3.18663 l 0.461919,0.64938 0.268136,-0.47784 c 0.455881,-0.81244 1.04561,-1.59371 1.762224,-2.33462 1.788101,-1.84871 3.70159,-2.68954 6.120622,-2.68954 1.104289,0 2.656723,0.26395 3.223223,0.54801 0.238391,0.11955 0.373641,0.47926 0.267651,0.71189 -0.130406,0.28621 -2.03091,1.75719 -4.014796,3.10743 -0.924185,0.629 -0.969451,0.67139 -0.764093,0.71547 2.698375,0.57915 4.689354,2.26286 5.894398,4.98468 0.135055,0.30506 0.245557,0.67469 0.245557,0.8214 0,0.33023 -0.223592,0.57239 -0.528492,0.57239 -0.125215,0 -0.803098,-0.28542 -1.547272,-0.65148 -1.445634,-0.71109 -3.062972,-1.36714 -4.609976,-1.86996 -0.907108,-0.29483 -3.93876,-1.09591 -3.976333,-1.05071 -0.0087,0.0106 0.01316,0.20826 0.04866,0.4394 0.125764,0.81849 0.170076,3.5172 0.07527,4.58411 -0.423267,4.762854 -2.16574,9.212084 -5.631113,14.378454 -0.441805,0.65867 -0.885389,1.28617 -0.985733,1.39446 l -0.182447,0.19687 h -2.67795 c -2.576066,0 -2.683756,-0.006 -2.830761,-0.15282 z m 5.863483,-2.38776 c 1.133556,-1.71462 1.777054,-2.81091 2.518076,-4.28986 2.097424,-4.18611 3.022802,-8.26999 2.771888,-12.232914 -0.07165,-1.13146 -0.182288,-2.08252 -0.250184,-2.15042 -0.01562,-0.0156 -0.2225,-0.0643 -0.459771,-0.10812 -0.400964,-0.0741 -0.450821,-0.0666 -0.706781,0.10738 l -0.275388,0.18713 -0.0295,1.28621 c -0.152768,6.668554 -2.601804,12.771714 -7.331407,18.270304 l -0.279327,0.32474 h 1.560235 1.560236 z M 30.913231,96.297876 c 0.546321,-0.45276 1.294197,-1.04856 1.661953,-1.324 0.367757,-0.27545 0.652969,-0.5165 0.63381,-0.53567 -0.06623,-0.0662 -1.075969,0.15757 -1.861383,0.41251 -1.92322,0.62424 -3.271583,1.71294 -4.090428,3.3027 -0.339646,0.65941 -0.603921,1.41765 -0.725,2.080104 l -0.0637,0.34833 1.725699,-1.730394 c 0.949128,-0.95171 2.172688,-2.10083 2.719009,-2.55358 z m 15.319283,-0.34864 c -1.43419,-2.11194 -3.754932,-3.18194 -6.315569,-2.91186 -1.043059,0.11001 -2.263843,0.39059 -2.050546,0.47128 0.08405,0.0318 0.742909,0.19851 1.464128,0.37046 2.081736,0.49635 4.984044,1.49409 6.673377,2.29414 0.27316,0.12937 0.506534,0.23524 0.518601,0.23528 0.01207,3e-5 -0.118426,-0.20666 -0.289991,-0.4593 z m -12.39929,-3.68459 c -1.354328,-1.76162 -2.920672,-2.62726 -4.906612,-2.71166 -1.022381,-0.0435 -1.782244,0.0654 -2.827118,0.40484 -0.82966,0.26956 -1.942133,0.80127 -1.795597,0.85821 0.177125,0.0688 9.890837,2.05196 9.925519,2.02637 0.01685,-0.0124 -0.161444,-0.27242 -0.396192,-0.57776 z m 4.835759,-0.2484 c 1.273129,-0.23665 2.823033,-1.11071 5.501113,-3.1023 l 0.955107,-0.71027 -0.267427,-0.0657 c -0.147085,-0.0361 -0.731609,-0.0699 -1.298947,-0.0752 -1.228607,-0.0113 -2.020947,0.15252 -3.034984,0.62771 -1.441333,0.67543 -2.818218,1.98186 -3.716845,3.52661 l -0.206464,0.35493 0.671427,-0.21051 c 0.369289,-0.11577 0.997944,-0.27119 1.39702,-0.34538 z"
       id="tree"
       class="img2" />
    <path
       style="stroke-width:0.0621907"
       d="m 29.530548,119.85203 c -0.254601,-0.17776 -2.103267,-1.41453 -4.10817,-2.74838 -2.004904,-1.33385 -3.729887,-2.49748 -3.833318,-2.58585 l -0.18805,-0.16067 v -0.66241 c 0,-0.44416 0.02386,-0.68786 0.07233,-0.73965 0.03976,-0.0425 0.801384,-0.56443 1.692448,-1.15988 l 1.620128,-1.08264 0.02892,-9.35406 c 0.01591,-5.144734 0.05003,-9.391664 0.07571,-9.437614 0.02581,-0.046 0.07114,-0.0836 0.1009,-0.0836 0.02971,0 1.140135,-0.72537 2.467531,-1.61193 1.327404,-0.88657 2.4709,-1.64217 2.54111,-1.67913 0.11027,-0.0581 0.473335,0.1629 2.664249,1.62126 1.395134,0.92865 2.56914,1.73513 2.608926,1.79217 0.05712,0.0819 0.07234,2.06474 0.07234,9.409444 v 9.30573 l 1.663507,1.11801 c 0.914945,0.61491 1.682652,1.15168 1.706034,1.19282 0.02335,0.0411 0.04295,0.36339 0.04338,0.71615 5.57e-4,0.54105 -0.01598,0.65896 -0.10667,0.75382 -0.153816,0.16081 -8.504951,5.72417 -8.588774,5.72167 -0.03832,-7.2e-4 -0.277983,-0.14753 -0.53257,-0.32529 z m 0.260378,-0.76949 c 0,-0.1404 -0.198411,-0.29346 -1.5478,-1.19413 -4.200952,-2.80396 -6.208849,-4.12607 -6.266225,-4.12607 -0.03478,0 -0.0548,0.0673 -0.04475,0.14963 0.01497,0.12101 0.76003,0.6448 3.895214,2.73839 2.132193,1.42381 3.896247,2.58977 3.920106,2.59099 0.02393,7.2e-4 0.04338,-0.0702 0.04338,-0.15881 z m 4.523297,-2.41669 c 2.078894,-1.38541 3.812365,-2.54899 3.852137,-2.58572 0.08708,-0.0804 0.09661,-0.31779 0.01272,-0.31779 -0.03282,0 -1.080777,0.67986 -2.328927,1.5108 -1.248135,0.83094 -2.991887,1.99191 -3.874998,2.57992 -1.430343,0.95239 -1.605654,1.08744 -1.605654,1.23697 0,0.1178 0.02458,0.15696 0.08244,0.13132 0.04526,-0.0202 1.78335,-1.17007 3.862252,-2.5555 z m -0.993751,-0.50032 c 4.236624,-2.77342 4.517311,-2.96278 4.503458,-3.03823 -0.0072,-0.0367 -0.560621,-0.43558 -1.230826,-0.88627 l -1.218551,-0.81943 -0.02892,1.13159 c -0.01591,0.62238 -0.04201,1.14611 -0.05784,1.16384 -0.08804,0.0982 -5.164655,3.45437 -5.22509,3.45437 -0.03976,0 -0.123769,-0.0412 -0.186553,-0.0916 -0.06276,-0.0503 -1.207705,-0.82094 -2.544306,-1.71241 -1.3366,-0.89147 -2.443202,-1.63476 -2.459115,-1.65176 -0.01591,-0.017 -0.04201,-0.53548 -0.05784,-1.1522 l -0.02892,-1.1213 -1.260194,0.83725 c -0.693102,0.46051 -1.23904,0.86169 -1.213193,0.89155 0.02581,0.0299 1.775,1.19651 3.887022,2.59257 3.358834,2.2202 3.855275,2.52902 3.961627,2.46442 0.06688,-0.0406 1.488551,-0.96871 3.159303,-2.06243 z m -3.529705,-0.58169 -1.74e-4,-0.65173 -0.67972,-0.44478 c -0.373822,-0.24464 -1.213474,-0.80266 -1.865858,-1.24006 -0.652383,-0.4374 -1.335877,-0.8937 -1.518858,-1.01399 l -0.332706,-0.21872 v 0.66654 0.66653 l 2.155329,1.44184 c 1.185444,0.79301 2.174871,1.4428 2.198744,1.44398 0.02379,10e-4 0.04331,-0.29116 0.04324,-0.64961 z m 2.815564,-0.79108 2.160672,-1.44281 v -0.66514 c 0,-0.66439 -1.16e-4,-0.66505 -0.127174,-0.58651 -0.06999,0.0432 -0.831548,0.55016 -1.692449,1.12649 -0.860901,0.57632 -1.792373,1.19623 -2.069937,1.37759 l -0.504669,0.32973 -0.0014,0.65173 c -7.23e-4,0.35845 0.01547,0.65174 0.03644,0.65174 0.02097,0 1.010365,-0.64927 2.198744,-1.44282 z m -2.815405,-1.22961 v -0.66709 l -0.303779,-0.20126 c -0.167076,-0.11069 -0.323307,-0.20154 -0.347173,-0.20189 -0.02379,-3.3e-4 -0.04338,0.28176 -0.04338,0.6269 v 0.62752 l 0.332706,0.23575 c 0.182982,0.12967 0.339206,0.23832 0.347173,0.24146 0.008,0.004 0.01446,-0.29448 0.01446,-0.66139 z m 1.272948,-0.44365 c 0,-0.34497 -0.01959,-0.62693 -0.04338,-0.62659 -0.02393,3.3e-4 -0.180097,0.0912 -0.347166,0.20189 l -0.303779,0.20126 v 0.66424 0.66424 l 0.347166,-0.23892 0.347173,-0.23891 z m -2.48805,-0.38508 c 0,-0.6842 0.01641,-0.64751 -0.419493,-0.93531 l -0.274845,-0.18144 v 0.66575 0.66574 l 0.303779,0.20458 c 0.167068,0.11252 0.323299,0.20524 0.347165,0.20605 0.02379,6.5e-4 0.04338,-0.2806 0.04338,-0.62537 z m 3.392316,0.42141 0.310828,-0.20544 v -0.67123 -0.67123 l -0.130196,0.0953 c -0.07165,0.0524 -0.227829,0.16361 -0.347166,0.24709 l -0.216977,0.15179 v 0.62957 c 0,0.34627 0.01634,0.62957 0.03629,0.62957 0.01995,0 0.176215,-0.0924 0.347166,-0.20543 z m -4.665264,-1.26024 v -0.66354 l -0.310813,-0.20545 c -0.170952,-0.11298 -0.327183,-0.20543 -0.347173,-0.20543 -0.01995,0 -0.03629,0.28334 -0.03629,0.62965 v 0.62964 l 0.332713,0.23755 c 0.182974,0.13065 0.339198,0.23834 0.347158,0.23933 0.008,0.001 0.01446,-0.2968 0.01446,-0.66175 z m 6.176712,0.24278 c 0.07477,-0.0657 0.108954,-1.3172 0.03593,-1.3172 -0.01995,0 -0.176221,0.0925 -0.34718,0.20543 l -0.310813,0.20545 v 0.66636 0.66636 l 0.274844,-0.18144 c 0.151163,-0.0998 0.307387,-0.21002 0.347173,-0.24495 z m -3.758272,-1.01971 c -0.04128,-0.0447 -0.686935,-0.48694 -1.434797,-0.98279 -0.747861,-0.49586 -1.698232,-1.12937 -2.111935,-1.40781 l -0.752206,-0.50625 -0.01713,0.51323 c -0.0095,0.28227 0.0029,0.52173 0.02892,0.53212 0.0253,0.0104 1.009469,0.66388 2.186953,1.45217 l 2.140877,1.43325 0.01721,-0.47633 c 0.01178,-0.32629 -0.0065,-0.50195 -0.05784,-0.55759 z m 2.326194,-0.0669 c 0.811506,-0.54219 1.755334,-1.16932 2.097381,-1.39363 l 0.621909,-0.40782 1.23e-4,-0.5235 1.16e-4,-0.52349 -0.18805,0.13127 c -0.103431,0.0722 -0.87805,0.59067 -1.721383,1.15216 -0.843325,0.56149 -1.741627,1.16145 -1.99622,1.33324 l -0.462888,0.31237 -0.01699,0.51673 c -0.01569,0.47919 -0.0095,0.51208 0.08679,0.4526 0.05697,-0.0353 0.767678,-0.50775 1.579185,-1.04993 z m -5.972098,-0.003 -0.01656,-0.6411 -0.332706,-0.22612 -0.332698,-0.22612 v 0.66533 0.66534 l 0.303764,0.20126 c 0.167076,0.11069 0.324254,0.20154 0.349263,0.20188 0.02509,3.4e-4 0.03803,-0.28786 0.02892,-0.64047 z m 8.387819,0.43859 0.303772,-0.20126 v -0.66534 -0.66533 l -0.332706,0.22612 -0.332699,0.22612 -0.01656,0.6411 c -0.0091,0.35261 0.0036,0.64083 0.02892,0.64047 0.02509,-3.2e-4 0.182187,-0.0912 0.349263,-0.20188 z m -4.672305,-1.73108 v -0.66355 l -0.310829,-0.20544 c -0.170943,-0.11299 -0.327174,-0.20543 -0.347165,-0.20543 -0.01995,0 -0.03629,0.28334 -0.03629,0.62964 v 0.62965 l 0.332706,0.23754 c 0.182981,0.13065 0.339212,0.23835 0.347172,0.23933 0.008,0.001 0.01446,-0.2968 0.01446,-0.66174 z m 1.200612,0.24278 c 0.07477,-0.0656 0.108962,-1.31719 0.03593,-1.31719 -0.01995,0 -0.176222,0.0925 -0.347158,0.20544 l -0.310829,0.20544 v 0.66635 0.66637 l 0.274845,-0.18143 c 0.151163,-0.0998 0.307394,-0.21003 0.347173,-0.24496 z m -2.428084,-1.08931 -0.01648,-0.6411 -0.332713,-0.22612 -0.332706,-0.22612 v 0.66534 0.66534 l 0.303771,0.20125 c 0.167076,0.11069 0.324255,0.20154 0.34927,0.20188 0.02501,3.3e-4 0.03803,-0.28786 0.02892,-0.64047 z m 3.411735,0.43859 0.303779,-0.20126 v -0.66533 -0.66534 l -0.332713,0.22612 -0.332706,0.22612 -0.01656,0.6411 c -0.0091,0.35261 0.0036,0.64081 0.02892,0.64047 0.02501,-3.3e-4 0.182186,-0.0912 0.349255,-0.20188 z m -4.672313,-1.26169 v -0.66206 l -0.317364,-0.20692 c -0.174544,-0.1138 -0.331715,-0.20691 -0.349262,-0.20691 -0.0175,0 -0.02444,0.29148 -0.01533,0.64775 l 0.01648,0.64774 0.318239,0.22096 c 0.175036,0.12152 0.324745,0.22108 0.332705,0.22123 0.008,1.3e-4 0.01446,-0.29765 0.01446,-0.66179 z m 6.032056,0.34989 0.216984,-0.15741 v -0.63419 c 0,-0.3488 -0.01547,-0.63418 -0.03434,-0.63418 -0.01887,0 -0.175123,0.0973 -0.347173,0.21616 l -0.312809,0.21614 v 0.65518 0.65518 l 0.130181,-0.0797 c 0.07165,-0.0439 0.227836,-0.15057 0.34718,-0.23715 z m -3.64247,-1.14322 c -0.05726,-0.0484 -0.833117,-0.57229 -1.724174,-1.16415 -0.891072,-0.59186 -1.828429,-1.22009 -2.083016,-1.39607 l -0.462894,-0.31995 -0.01706,0.50485 c -0.0093,0.27767 -0.0093,0.51211 0,0.52098 0.0093,0.009 0.993447,0.66701 2.186837,1.46253 l 2.169796,1.4464 0.01721,-0.48328 c 0.01439,-0.40273 -5.8e-5,-0.49796 -0.08679,-0.57131 z m 1.207871,0.72748 c 0.459779,-0.31192 2.468536,-1.65435 3.417526,-2.28389 l 0.447727,-0.297 5.56e-4,-0.51309 5.57e-4,-0.5131 -1.316342,0.87596 c -0.723995,0.48178 -1.706908,1.1378 -2.184263,1.45784 l -0.867936,0.58187 -0.01692,0.50913 c -0.0093,0.28002 -0.0051,0.50913 0.01005,0.50913 0.01489,0 0.243749,-0.14708 0.508725,-0.32685 z m -4.812551,-0.77118 v -0.63011 l -0.310814,-0.20545 c -0.170951,-0.11298 -0.327175,-0.20544 -0.347173,-0.20544 -0.01995,0 -0.03629,0.28322 -0.03629,0.62938 v 0.62937 l 0.274838,0.20153 c 0.15117,0.11085 0.307394,0.20363 0.347166,0.20619 0.05307,0.004 0.07233,-0.16346 0.07233,-0.62547 z m 8.389916,0.43682 0.260378,-0.18279 0.01656,-0.64751 c 0.009,-0.35613 -5.56e-4,-0.64752 -0.02191,-0.64752 -0.02111,0 -0.178311,0.0925 -0.349263,0.20544 l -0.310813,0.20545 v 0.63011 c 0,0.71349 0.0051,0.71814 0.405019,0.43682 z m -4.686772,-1.73881 v -0.66205 l -0.317372,-0.20691 c -0.174544,-0.1138 -0.331715,-0.20692 -0.349262,-0.20692 -0.0175,0 -0.02444,0.29149 -0.01533,0.64775 l 0.01648,0.64775 0.318239,0.22095 c 0.175028,0.12153 0.324745,0.22109 0.332698,0.22124 0.008,1.3e-4 0.01446,-0.29766 0.01446,-0.66179 z m 1.055964,0.34988 0.216984,-0.15741 v -0.63422 c 0,-0.3488 -0.01547,-0.63419 -0.03434,-0.63419 -0.01887,0 -0.175123,0.0973 -0.347173,0.21616 l -0.31281,0.21614 v 0.65519 0.65517 l 0.130182,-0.0797 c 0.07165,-0.0439 0.227836,-0.15057 0.347173,-0.23714 z m -2.271066,-1.18692 v -0.63011 l -0.310814,-0.20531 c -0.170943,-0.11299 -0.327174,-0.20544 -0.347172,-0.20544 -0.01995,0 -0.03629,0.28322 -0.03629,0.62937 v 0.62937 l 0.274845,0.20154 c 0.15117,0.11084 0.307387,0.20363 0.347173,0.20618 0.05307,0.004 0.07233,-0.16346 0.07233,-0.62547 z m 3.413832,0.43683 0.260378,-0.1828 0.01656,-0.64751 c 0.0091,-0.35613 -5.57e-4,-0.64751 -0.02191,-0.64751 -0.02111,0 -0.178319,0.0925 -0.349263,0.20544 l -0.310821,0.20544 v 0.63011 c 0,0.7135 0.0051,0.71813 0.405034,0.43683 z m -4.68678,-1.26666 v -0.65782 l -0.303186,-0.19445 c -0.166743,-0.10695 -0.323943,-0.20485 -0.349327,-0.21756 -0.02538,-0.0127 -0.03868,0.27282 -0.0295,0.63453 l 0.0167,0.65764 0.315679,0.21774 c 0.173626,0.11975 0.323343,0.21774 0.332713,0.21774 0.0093,0 0.01706,-0.29602 0.01706,-0.65782 z m 6.24904,-0.4327 c 0,-0.36222 -0.01974,-0.64856 -0.04396,-0.6363 -0.02415,0.0122 -0.180328,0.11252 -0.347108,0.22282 l -0.303222,0.20053 -5.8e-5,0.65626 -5.8e-5,0.65626 0.347166,-0.22049 0.347165,-0.22049 v -0.65862 z m -3.773028,0.17865 -0.01692,-0.5108 -0.578617,-0.38083 c -0.318239,-0.20947 -1.301159,-0.8646 -2.18427,-1.45585 l -1.605654,-1.07501 v 0.51478 0.51478 l 2.155329,1.44545 c 1.185445,0.795 2.175963,1.44834 2.201174,1.45187 0.02523,0.004 0.03825,-0.22345 0.02892,-0.50439 z m 1.217111,0.13123 c 0.917172,-0.62201 1.425347,-0.96263 2.628245,-1.76166 l 1.142759,-0.7591 v -0.49561 c 0,-0.41303 -0.01446,-0.48908 -0.08681,-0.457 -0.07201,0.032 -1.850704,1.21174 -3.862237,2.56186 l -0.448428,0.30098 v 0.49499 c 0,0.27224 0.01504,0.49498 0.0334,0.49498 0.01836,0 0.285241,-0.17081 0.593069,-0.37958 z M 26.0869,103.4847 c -4.41e-4,-0.32169 -0.01995,-0.61642 -0.04338,-0.65494 -0.04374,-0.072 -0.557665,-0.43128 -0.616965,-0.43128 -0.01815,0 -0.03311,0.2857 -0.03311,0.6349 v 0.63489 l 0.274838,0.19939 c 0.151163,0.10966 0.307394,0.19996 0.347166,0.20066 0.05249,7.2e-4 0.07208,-0.15906 0.07143,-0.58362 z m 8.38993,0.40106 0.28851,-0.18382 7.23e-4,-0.65173 c 4.41e-4,-0.35845 -0.01901,-0.65173 -0.04323,-0.65173 -0.02422,0 -0.173952,0.0981 -0.332706,0.21798 l -0.288639,0.21799 -0.0167,0.61757 c -0.01063,0.3942 0.0051,0.61757 0.04331,0.61757 0.03304,0 0.189828,-0.0827 0.34851,-0.18383 z m -4.685904,-1.74404 v -0.65796 l -0.303194,-0.19444 c -0.16675,-0.10695 -0.323943,-0.20485 -0.349327,-0.21757 -0.02538,-0.0127 -0.03868,0.27283 -0.0295,0.63454 l 0.0167,0.65764 0.315672,0.21774 c 0.173626,0.11976 0.323343,0.21774 0.332706,0.21774 0.0093,0 0.01706,-0.29603 0.01706,-0.65783 z m 1.113825,0.31006 c 0.154604,-0.12558 0.159123,-0.14733 0.159123,-0.7653 0,-0.34982 -0.01974,-0.62601 -0.04396,-0.61376 -0.02415,0.0123 -0.180336,0.11253 -0.347108,0.22282 l -0.303222,0.20054 -5.8e-5,0.65344 -6.5e-5,0.65346 0.18805,-0.11097 c 0.103431,-0.061 0.259654,-0.16913 0.347172,-0.24023 z m -2.328927,-1.14985 v -0.62878 l -0.317357,-0.20692 c -0.174551,-0.1138 -0.331722,-0.20692 -0.349269,-0.20692 -0.0175,0 -0.02444,0.29138 -0.01533,0.64752 l 0.01656,0.64751 0.260385,0.18279 c 0.400624,0.28125 0.405027,0.27653 0.405027,-0.43534 z m 3.412964,0.44482 0.288502,-0.18383 7.23e-4,-0.65174 c 4.27e-4,-0.35845 -0.0146,-0.65173 -0.03347,-0.65173 -0.01887,0 -0.175116,0.0973 -0.347166,0.21615 l -0.312816,0.21615 v 0.61941 c 0,0.36816 0.0235,0.61941 0.05784,0.61941 0.03181,0 0.18766,-0.0827 0.346334,-0.18382 z m -4.685912,-1.27142 v -0.652994 l -0.347173,-0.22049 -0.347165,-0.22048 7.23e-4,0.656254 7.23e-4,0.65626 0.302752,0.21136 c 0.166526,0.11624 0.322295,0.21401 0.346161,0.21725 0.02386,0.004 0.04338,-0.28798 0.04338,-0.64714 z m 5.945861,0.42515 0.303179,-0.19444 v -0.66045 -0.660444 l -0.346486,0.21987 -0.346486,0.21986 -5.57e-4,0.657304 c -4.41e-4,0.36152 0.01909,0.64728 0.04331,0.63503 0.02422,-0.0123 0.180415,-0.10979 0.347166,-0.21673 z m -3.469849,-0.6781 -0.01692,-0.504904 -1.35975,-0.90476 c -0.747862,-0.49761 -1.716713,-1.14273 -2.153001,-1.43359 -0.436289,-0.29086 -0.807328,-0.52883 -0.824521,-0.52883 -0.01721,0 -0.0313,0.22192 -0.0313,0.49315 v 0.49315 l 1.460998,0.9721 c 0.803546,0.53466 1.773452,1.18382 2.155343,1.442584 0.381884,0.25876 0.714958,0.47172 0.740162,0.47324 0.02523,0.001 0.03825,-0.22444 0.02892,-0.50214 z m 1.791433,-0.250374 c 0.564786,-0.38087 1.515085,-1.01633 2.111776,-1.41216 l 1.084906,-0.71967 v -0.49494 c 0,-0.27222 -0.01294,-0.49494 -0.02892,-0.49494 -0.01591,0 -1.005326,0.6509 -2.198737,1.44644 l -2.16984,1.44644 v 0.499204 c 0,0.41671 0.01431,0.49284 0.08696,0.46066 0.04779,-0.0212 0.549061,-0.35017 1.113833,-0.731034 z m -5.482539,-0.30388 c 0,-0.48076 -0.01894,-0.60977 -0.101255,-0.69039 -0.105188,-0.10299 -0.522592,-0.38948 -0.567453,-0.38948 -0.0141,0 -0.02552,0.29328 -0.02538,0.65173 l 2.16e-4,0.65173 0.274607,0.181914 c 0.413543,0.27394 0.419262,0.26841 0.419262,-0.405504 z m 8.395794,0.407424 0.283304,-0.183834 6.5e-5,-0.65173 c 2.9e-5,-0.35845 -0.01424,-0.65173 -0.03167,-0.65173 -0.01742,0 -0.173662,0.10491 -0.347166,0.23312 l -0.315455,0.23313 v 0.60243 c 0,0.394444 0.02205,0.602434 0.06377,0.602434 0.03514,0 0.191289,-0.0827 0.3471,-0.18382 z m -4.69265,-1.739254 v -0.65299 l -0.34718,-0.22049 -0.347166,-0.22048 7.23e-4,0.65626 7.23e-4,0.65626 0.302759,0.21136 c 0.166527,0.11624 0.322295,0.214 0.346161,0.21724 0.02379,0.004 0.04338,-0.28797 0.04338,-0.64713 z m 0.969769,0.42516 0.303179,-0.19445 v -0.66058 -0.66044 l -0.346486,0.21986 -0.346479,0.21987 -5.64e-4,0.6573 c -4.41e-4,0.36153 0.01909,0.64728 0.04331,0.63503 0.02422,-0.0122 0.180415,-0.10978 0.347166,-0.21673 z m -2.246043,-1.88234 c -0.05784,-0.0805 -0.554809,-0.42989 -0.61152,-0.42989 -0.01186,0 -0.02133,0.29328 -0.02082,0.65174 l 7.23e-4,0.65173 0.33191,0.21141 0.331925,0.21141 0.0167,-0.6025 c 0.01056,-0.37888 -0.0079,-0.63643 -0.04895,-0.6939 z m 3.764316,0.22313 c 0,-0.35916 -0.01432,-0.65302 -0.03167,-0.65302 -0.01742,0 -0.173663,0.10491 -0.347159,0.23312 l -0.315462,0.23313 v 0.64038 0.64038 l 0.347166,-0.22049 0.347172,-0.22048 z m -4.976779,-0.43577 -5.64e-4,-0.65173 -0.346478,-0.21987 -0.346479,-0.21986 v 0.65495 0.65495 l 0.303772,0.21439 c 0.167068,0.11792 0.323299,0.21541 0.347165,0.21664 0.02386,0.001 0.04309,-0.29102 0.0428,-0.64947 z m 5.932363,0.44482 0.317364,-0.20692 v -0.66488 -0.66488 l -0.274845,0.18144 c -0.435956,0.28779 -0.419494,0.2511 -0.419494,0.93531 0,0.34477 0.01338,0.62684 0.02979,0.62684 0.01641,0 0.172622,-0.0931 0.347166,-0.20691 z m 0.693463,-2.51388 c 0.41371,-0.27392 0.772718,-0.52094 0.797799,-0.54892 0.02509,-0.028 0.0381,-0.33805 0.02892,-0.68903 l -0.01656,-0.63816 -2.169811,1.44688 -2.169803,1.44687 -0.01641,0.67998 -0.01641,0.67998 1.405118,-0.93978 c 0.772827,-0.51688 1.743622,-1.1639 2.157325,-1.43782 z m -4.149467,1.67099 -0.01656,-0.64874 -2.083009,-1.39218 c -1.145665,-0.7657 -2.128578,-1.42235 -2.18427,-1.45922 -0.09356,-0.062 -0.101255,-0.0161 -0.101255,0.60206 v 0.66909 l 0.382563,0.25237 c 0.210405,0.1388 1.180311,0.78571 2.155329,1.43755 0.975025,0.65185 1.793248,1.18577 1.818278,1.18649 0.02502,7.2e-4 0.03803,-0.29062 0.02892,-0.64742 z m -3.690766,-0.38652 v -0.63418 l -0.216977,-0.15742 c -0.119344,-0.0866 -0.27556,-0.19329 -0.347173,-0.23714 l -0.130181,-0.0797 v 0.65716 0.65715 l 0.303771,0.20821 c 0.167069,0.11452 0.3233,0.2109 0.347166,0.21418 0.02386,0.003 0.04338,-0.27941 0.04338,-0.62822 z m 8.679221,-0.45176 v -0.65685 l -0.130189,0.0797 c -0.07165,0.0438 -0.227829,0.15057 -0.347166,0.23715 l -0.216977,0.15741 v 0.58962 c 0,0.32429 0.01489,0.60686 0.03319,0.62793 0.01822,0.0211 0.174465,-0.0555 0.347173,-0.17006 l 0.314016,-0.20836 z m -2.444873,-1.85439 c 1.183037,-0.79006 2.132483,-1.45705 2.109868,-1.48219 -0.137997,-0.15352 -4.28176,-2.86274 -4.356041,-2.84802 -0.113386,0.0225 -4.396354,2.87757 -4.367203,2.91126 0.107082,0.1237 4.306414,2.87742 4.373537,2.86795 0.04887,-0.007 1.056803,-0.65895 2.239839,-1.449 z m -3.196623,-0.6917 c -0.75207,-0.51053 -0.810053,-0.56406 -0.810053,-0.74789 0,-0.18401 0.05733,-0.23666 0.810053,-0.74438 0.445535,-0.3005 0.869548,-0.54884 0.942237,-0.55186 0.07265,-0.003 0.437222,0.19521 0.810053,0.4405 0.962077,0.63297 1.005883,0.67218 0.984902,0.88141 -0.01504,0.14973 -0.140955,0.25968 -0.82776,0.72258 -0.445535,0.30029 -0.875158,0.54677 -0.954716,0.54774 -0.07956,7.3e-4 -0.509181,-0.24567 -0.954716,-0.5481 z m 1.484842,-0.45167 c 0.255996,-0.17272 0.386727,-0.29812 0.352291,-0.3379 -0.137346,-0.15867 -0.853505,-0.59307 -0.92529,-0.56125 -0.0441,0.0195 -0.263371,0.15914 -0.487253,0.31019 -0.289044,0.19502 -0.389099,0.29537 -0.345155,0.34614 0.130969,0.1513 0.850107,0.57959 0.922355,0.54931 0.04186,-0.0175 0.259178,-0.15544 0.483052,-0.30649 z"
       id="skyscraper"
       class="img2" />
    <path
       style="fill:#000000;stroke-width:0.0523034"
       d="m 32.450158,119.9739 c -0.242195,0.0497 -0.470819,-0.0421 -0.619864,-0.24887 -0.09933,-0.13781 -0.114652,-0.41248 -0.115107,-2.06311 -2.03e-4,-1.04728 0.02653,-1.96947 0.05957,-2.04933 0.195316,-0.47152 0.966227,-0.44102 1.115271,0.0441 0.02776,0.0904 0.04931,1.00965 0.04772,2.04276 -0.0029,1.80915 -0.0081,1.88494 -0.148828,2.05662 -0.109381,0.13345 -0.194564,0.1882 -0.338858,0.21781 z m 2.121254,-2.19359 c -0.266849,0.0174 -0.498336,-0.0961 -0.605476,-0.29682 -0.07143,-0.13374 -0.09543,-2.88953 -0.02711,-3.11013 0.140202,-0.45276 0.682156,-0.56048 1.03661,-0.20603 0.131172,0.13117 0.138886,0.22309 0.141229,1.68239 0.0029,1.4823 -0.0029,1.55099 -0.145278,1.72892 -0.131237,0.16458 -0.17594,0.18712 -0.399958,0.20167 z m 8.421489,-8.31805 c -0.0855,0.0162 -1.436026,0.0318 -3.001163,0.0346 l -2.845713,0.005 -0.122503,0.31822 c -0.40755,1.05866 -1.138356,2.46764 -1.357762,2.61773 -0.113271,0.0775 -0.78117,0.0966 -3.359145,0.0963 l -3.217764,-3.9e-4 -0.189951,-0.19793 c -0.251211,-0.26176 -0.882989,-1.51217 -1.270851,-2.51527 l -0.122562,-0.31696 -2.922343,-0.004 c -1.932582,-0.002 -2.965418,-0.0297 -3.049509,-0.0804 -0.294228,-0.17754 -0.396148,-0.51405 -0.25236,-0.83326 0.04345,-0.0965 0.872679,-0.95158 2.527077,-2.60598 l 2.462404,-2.4624 0.01251,-0.88287 c 0.06977,-4.924344 1.837474,-9.400674 5.112086,-12.944984 0.636977,-0.68943 0.780411,-0.7783 1.094659,-0.67828 0.455766,0.14507 2.163166,2.21945 3.093127,3.75796 1.79079,2.96267 2.727403,6.26884 2.783666,9.826174 l 0.0146,0.92332 2.465341,2.46535 c 2.625692,2.62569 2.613727,2.61205 2.594141,2.95077 -0.012,0.20756 -0.251861,0.48962 -0.447994,0.5268 z m -3.978039,-3.51722 -0.787829,-0.76784 -0.130521,0.78292 c -0.07179,0.43061 -0.205886,1.07112 -0.297988,1.42336 -0.09209,0.35223 -0.176229,0.68919 -0.186965,0.74879 -0.01721,0.0957 0.196827,0.10861 1.831834,0.1105 l 1.851333,0.002 -0.746018,-0.766 c -0.410311,-0.4213 -1.100536,-1.11153 -1.533846,-1.53384 z m -3.720618,4.72232 c 0.990569,-2.00341 1.594989,-4.19284 1.78348,-6.46039 0.19335,-2.32594 -0.106453,-4.830254 -0.847316,-7.077844 l -0.26147,-0.79322 h -3.643511 -3.643518 l -0.26147,0.79322 c -1.470563,4.461344 -1.13049,9.372774 0.937791,13.543384 l 0.317892,0.64103 2.646637,3.7e-4 c 1.455655,2.2e-4 2.648857,-0.001 2.651554,-0.004 0.0029,-0.003 0.146659,-0.29161 0.319931,-0.64205 z m -1.39877,-5.26525 c -0.989225,0.56152 -2.173599,0.55612 -3.158175,-0.0144 -0.319215,-0.18497 -0.872187,-0.74127 -1.067135,-1.07354 -0.698539,-1.19059 -0.503158,-2.8022 0.455991,-3.76135 1.012606,-1.012624 2.697868,-1.173764 3.923055,-0.37515 0.598167,0.38992 1.056622,1.03326 1.261879,1.77083 0.197615,0.71008 0.06102,1.6985 -0.325794,2.35781 -0.192886,0.32877 -0.781907,0.92102 -1.089821,1.0958 z m 0.06247,-1.80491 c 0.410145,-0.7881 0.240619,-1.66366 -0.437605,-2.26008 -0.491344,-0.43208 -1.210177,-0.56141 -1.855056,-0.33375 -0.383699,0.13545 -0.840455,0.55898 -1.012028,0.93843 -0.261715,0.57877 -0.235276,1.16829 0.07776,1.7339 0.396849,0.71704 1.348016,1.08433 2.143465,0.8277 0.516468,-0.16663 0.838922,-0.43632 1.083459,-0.9062 z m -7.089328,3.85355 c -0.105701,-0.413 -0.245492,-1.07339 -0.310655,-1.46753 -0.06514,-0.39413 -0.124578,-0.74246 -0.132039,-0.77407 -0.0085,-0.0364 -0.581017,0.50999 -1.559556,1.48853 l -1.545993,1.546 1.848651,5.5e-4 c 1.016756,3.1e-4 1.858346,-0.009 1.87021,-0.021 0.01186,-0.0119 -0.06492,-0.35947 -0.170618,-0.77248 z m 8.295595,-12.906704 c -0.68703,-1.32617 -1.916302,-3.11084 -2.644635,-3.83951 l -0.194123,-0.19421 -0.194123,0.1942 c -0.81878,0.81914 -2.31472,3.05485 -2.867287,4.28514 -0.05299,0.11805 0.112917,0.12487 3.044904,0.12518 1.705542,1.8e-4 3.100155,-0.0231 3.099143,-0.0516 -0.0014,-0.0285 -0.110762,-0.2622 -0.243879,-0.51918 z m -4.778723,23.206814 c -0.23054,0.0956 -0.478887,0.0389 -0.671109,-0.15333 l -0.182656,-0.18266 0.0029,-1.55439 c 0.0029,-1.46981 0.01005,-1.56194 0.141251,-1.69315 0.354605,-0.3546 0.897368,-0.24651 1.036262,0.20637 0.07114,0.23208 0.04764,2.90774 -0.02704,3.07096 -0.07607,0.16633 -0.153809,0.24588 -0.299231,0.3062 z"
       id="rocket"
       class="img2" />
  </g>
  <script
     id="script1278">//<![CDATA[
      const intxt1 = ["crazy", "nice", "fancy", "Critical", "Practice",  "Graphic",  "Storytelling"];
      const intxt2 = ["santa claus", "cat", "dog"];
      const image2 = ["tree", "rocket", "skyscraper"];
      const image1 = ["santa", "cat", "dog"];
      var input1 = document.getElementById("inputtext1");
      var input2 = document.getElementById("inputtext2");
      var img1s = document.getElementsByClassName('img1');
      var img2s = document.getElementsByClassName('img2');
    
    <!-- const screen = document.getElementById("screen"); -->
   var frame = 0;
   var elements = document.getElementsByClassName('vector');
   var vboxs = document.getElementsByClassName('vbox');
   var encodersymbol = document.getElementById("encodersymbol");
    <!-- var ypos = 0; -->
    function animate() {
      frame++;


      if (frame%100 == 0){
         var i1 = Math.floor(Math.random() * image1.length); 
         var i2 = Math.floor(Math.random() * image1.length); 
         for(i=0;i<3;i++){
            img1s[i].setAttribute("visibility", "hidden");
            img2s[i].setAttribute("visibility", "hidden");
         }
         img1s[i1].setAttribute("visibility", "visible");
         img2s[i2].setAttribute("visibility", "visible");

      }

         
      
      if (frame%100 == 33){
                                 for(i=0;i<6;i++){
            vboxs[i].setAttribute("fill","#e8e8e8")
         }
         encodersymbol.setAttribute("fill","#e8ffe8")
         }
      if (frame%100 == 50){
          encodersymbol.setAttribute("fill","#e8e8e8")
         
         }
      if (frame%100 == 66){

         for(i=0;i<5;i++){
            elements[i].innerHTML= (0.5-Math.random()).toFixed(3);
            } 
         for(i=0;i<6;i++){
            vboxs[i].setAttribute("fill","#e8ffe8")
         }
      }

        requestAnimationFrame(animate);
    }
    requestAnimationFrame(animate);//]]></script>
</svg>
